<svg xmlns="http://www.w3.org/2000/svg" width="294" height="77.94" viewBox="0 0 294 77.94">
  <metadata><?xpacket begin="﻿" id="W5M0MpCehiHzreSzNTczkc9d"?>
<x:xmpmeta xmlns:x="adobe:ns:meta/" x:xmptk="Adobe XMP Core 5.6-c138 79.159824, 2016/09/14-01:09:01        ">
   <rdf:RDF xmlns:rdf="http://www.w3.org/1999/02/22-rdf-syntax-ns#">
      <rdf:Description rdf:about=""/>
   </rdf:RDF>
</x:xmpmeta>
                                                                                                    
                                                                                                    
                                                                                                    
                                                                                                    
                                                                                                    
                                                                                                    
                                                                                                    
                                                                                                    
                                                                                                    
                                                                                                    
                                                                                                    
                                                                                                    
                                                                                                    
                                                                                                    
                                                                                                    
                                                                                                    
                                                                                                    
                                                                                                    
                                                                                                    
                                                                                                    
                           
<?xpacket end="w"?></metadata>
<defs>
    <style>
      .cls-1, .cls-2, .cls-3 {
        fill: none;
        stroke: #414445;
        stroke-width: 1px;
        fill-rule: evenodd;
      }

      .cls-2 {
        opacity: 0.7;
      }

      .cls-3 {
        opacity: 0.3;
      }
    </style>
  </defs>
  <path id="Прямоугольник_скругл._углы_4_копия_10" data-name="Прямоугольник, скругл. углы 4 копия 10" class="cls-1" d="M271.419,1435.06c77.126-1.62,154.534-7.76,231.25-2.78,16.235,0,29.319,14.32,29.256,31.47-0.019,16.42-13.219,30.22-29.425,30.35-76.908,1.07-153.484,5.17-230.839,2.18-16.272-.36-29.509-14.14-29.58-30.9-0.053-16.6,13.08-30.13,29.338-30.32h0Z" transform="translate(-238.5 -1426.31)"/>
  <path id="Прямоугольник_скругл._углы_4_копия_11" data-name="Прямоугольник, скругл. углы 4 копия 11" class="cls-2" d="M502.659,1434.68c-77.168-1.62-154.617-7.76-231.374-2.77-16.245-.01-29.336,14.32-29.272,31.48,0.019,16.43,13.226,30.24,29.441,30.36,76.949,1.08,153.567,5.18,230.962,2.18,16.282-.35,29.526-14.14,29.6-30.91,0.053-16.61-13.087-30.14-29.354-30.34h0Z" transform="translate(-238.5 -1426.31)"/>
  <path id="Прямоугольник_скругл._углы_4_копия_12" data-name="Прямоугольник, скругл. углы 4 копия 12" class="cls-3" d="M499.252,1432.5c-39.012-3.09-77.74-5.42-116.179-5.65q-14.415-.09-28.785.18-7.185.15-14.362,0.37-3.589.12-7.176,0.25t-7.172.29q-28.684,1.26-57.345,3.69a28.924,28.924,0,0,0-20.7,9.54,32.11,32.11,0,0,0-6.256,10,32.675,32.675,0,0,0-2.261,12.1c0.044,15.81,13.146,31.87,29.246,34.53a752.99,752.99,0,0,0,115.173,5.72c19.262-.45,38.561-1.54,57.891-2.9s38.689-2.97,58.069-4.39a31.681,31.681,0,0,0,29.621-31.34c0.106-16.26-13.25-30.89-29.761-32.39h0Z" transform="translate(-238.5 -1426.31)"/>
</svg>
