<?xml version="1.0" encoding="utf-8"?>
<!-- Generator: Adobe Illustrator 21.0.0, SVG Export Plug-In . SVG Version: 6.00 Build 0)  -->
<svg version="1.1" id="Capa_1" xmlns="http://www.w3.org/2000/svg" xmlns:xlink="http://www.w3.org/1999/xlink" x="0px" y="0px"
	 viewBox="0 0 110 110" style="enable-background:new 0 0 110 110;" xml:space="preserve">
<style type="text/css">
	.st0{fill:#ffb438}
</style>
<g>
	<g>
		<path class="st0" d="M64.8,105.3H48.4c-2.4,0-4.4-2-4.4-4.4V63.4H33.9c-2.4,0-4.4-2-4.4-4.4V43.2c0-2.4,2-4.4,4.4-4.4h10v-8.5
			c0-15.6,10.2-26.1,25.5-26.1h12.5c2.5,0,4.4,1.9,4.4,4.3v14.6c0,2.4-2,4.4-4.4,4.4h-8.4c-4.2,0-4.4,1-4.4,4.3v6.8h12.4
			c1.2,0,2.3,0.5,3.1,1.3c0.8,0.8,1.3,1.9,1.3,3.1v15.8c0,2.4-2,4.4-4.4,4.4H69.2v37.6C69.2,103.3,67.2,105.3,64.8,105.3z
			 M48.8,100.5h15.6V58.4H81v-15H64.3V31.9c0-4.5,1.1-9.1,9.2-9.1h8V9.1H69.4c-12.7,0-20.7,8.1-20.7,21.3v13.3H34.3v15h14.5V100.5z"
			/>
	</g>
</g>
</svg>
