<?xml version="1.0" encoding="utf-8"?>
<!-- Generator: Adobe Illustrator 21.0.0, SVG Export Plug-In . SVG Version: 6.00 Build 0) -->
<svg version="1.1" id="Слой_1" xmlns="http://www.w3.org/2000/svg" xmlns:xlink="http://www.w3.org/1999/xlink" x="0px" y="0px" viewBox="0 0 24 30" style="enable-background:new 0 0 24 30;" xml:space="preserve">
	<style type="text/css">
		g {
			fill: #f8b148;
		}
	</style>
	<g>
		<path
			d="M16.7,23.9H7.3c-1.5,0-2.7-1.2-2.7-2.7V2.8c0-1.5,1.2-2.7,2.7-2.7h9.3c1.5,0,2.7,1.2,2.7,2.7v18.3
		C19.4,22.7,18.2,23.9,16.7,23.9z M7.3,1.4C6.5,1.4,5.9,2,5.9,2.8v18.3c0,0.8,0.6,1.4,1.4,1.4h9.3c0.8,0,1.4-0.6,1.4-1.4V2.8
		c0-0.8-0.6-1.4-1.4-1.4C16.7,1.4,7.3,1.4,7.3,1.4z"/>
		<path d="M18.8,5.9H5.2c-0.4,0-0.7-0.3-0.7-0.7s0.3-0.7,0.7-0.7h13.5c0.4,0,0.6,0.3,0.6,0.7S19.1,5.9,18.8,5.9z"/>
		<path d="M18.8,19.2H5.2c-0.4,0-0.7-0.3-0.7-0.6s0.3-0.6,0.7-0.6h13.5c0.4,0,0.6,0.3,0.6,0.6S19.1,19.2,18.8,19.2z"/>
		<path d="M12,21.9c-0.5,0-0.8-0.4-0.8-0.8c0-0.5,0.4-0.8,0.8-0.8s0.8,0.4,0.8,0.8C12.8,21.5,12.5,21.9,12,21.9z M12,20.6
		c-0.3,0-0.5,0.2-0.5,0.5c0,0.3,0.2,0.5,0.5,0.5s0.5-0.2,0.5-0.5C12.5,20.8,12.3,20.6,12,20.6z"/>
		<path d="M14.1,3.7H9.9c-0.4,0-0.6-0.3-0.6-0.7s0.3-0.7,0.6-0.7h4.2c0.4,0,0.6,0.3,0.6,0.7S14.4,3.7,14.1,3.7z"/>
	</g>
</svg>
