<?xml version="1.0" encoding="utf-8"?>
<!-- Generator: Adobe Illustrator 21.0.0, SVG Export Plug-In . SVG Version: 6.00 Build 0)  -->
<svg version="1.1" id="Слой_1" xmlns="http://www.w3.org/2000/svg" xmlns:xlink="http://www.w3.org/1999/xlink" x="0px" y="0px"
	 viewBox="0 0 100 100" style="enable-background:new 0 0 100 100;" xml:space="preserve">
<style type="text/css">
	.st0{fill:#ffb438;}
</style>
<path class="st0" d="M95.3,12c-0.4-0.4-0.9-0.5-1.4-0.3L5.3,40.3c-0.5,0.2-0.9,0.6-1,1.1s0.2,1.1,0.6,1.4l20.8,14.3l4.4,28.2
	c0,0,0,0.1,0,0.1c0,0,0,0,0,0c0,0,0,0.1,0,0.1c0,0,0,0,0,0c0,0,0,0,0,0.1c0,0,0,0,0,0c0,0,0,0,0,0.1c0,0,0,0,0,0c0,0,0,0,0,0.1
	c0,0,0,0,0,0c0,0,0.1,0.1,0.1,0.1c0,0,0,0,0,0c0,0,0,0,0.1,0.1l0,0c0,0,0,0,0,0c0,0,0,0,0.1,0.1c0,0,0,0,0,0c0,0,0,0,0.1,0
	c0,0,0,0,0,0c0,0,0.1,0,0.1,0c0,0,0,0,0.1,0c0,0,0,0,0.1,0c0,0,0,0,0.1,0c0,0,0,0,0.1,0c0,0,0,0,0.1,0c0,0,0,0,0.1,0c0,0,0,0,0.1,0
	c0,0,0,0,0,0c0,0,0,0,0,0c0,0,0,0,0.1,0c0,0,0,0,0.1,0c0,0,0,0,0,0c0,0,0,0,0,0c0,0,0.1,0,0.1,0c0,0,0,0,0,0c0,0,0.1,0,0.1,0
	c0,0,0,0,0,0c0,0,0.1,0,0.1,0c0,0,0,0,0.1,0c0,0,0,0,0.1,0c0,0,0,0,0.1,0c0,0,0.1,0,0.1,0c0,0,0,0,0.1,0c0,0,0,0,0.1,0c0,0,0,0,0,0
	c0,0,0,0,0.1-0.1c0,0,0,0,0,0c0,0,0.1-0.1,0.1-0.1l0,0l13.7-14.9l24.8,17c0.2,0.2,0.5,0.2,0.8,0.2c0.2,0,0.3,0,0.5-0.1
	c0.4-0.1,0.8-0.5,0.9-0.9l22.4-74C95.8,12.9,95.6,12.3,95.3,12z M84.9,17.5L27.1,54.6L8.9,42.1L84.9,17.5z M39.4,64.4
	C39.4,64.4,39.4,64.4,39.4,64.4C39.4,64.5,39.3,64.5,39.4,64.4c-0.1,0.1-0.1,0.1-0.1,0.1c0,0,0,0,0,0c0,0,0,0.1-0.1,0.1c0,0,0,0,0,0
	c0,0,0,0.1,0,0.1c0,0,0,0,0,0l0,0l0,0l-6.9,15.3L28.6,57l54.1-34.7L39.4,64.4z M36.4,77.7L41,67.6l2.9,2L36.4,77.7z M71.1,84.8
	L42.6,65.2l48.7-47.4L71.1,84.8z"/>
</svg>
