<?xml version="1.0" encoding="utf-8"?>
<!-- Generator: Adobe Illustrator 21.0.2, SVG Export Plug-In . SVG Version: 6.00 Build 0) -->
<svg version="1.1" id="Слой_1" xmlns="http://www.w3.org/2000/svg" xmlns:xlink="http://www.w3.org/1999/xlink" x="0px" y="0px" viewBox="0 0 16 16" style="enable-background:new 0 0 16 16;" xml:space="preserve">
	<style type="text/css">
		.st0 {
			fill: #f8b148;
		}
	</style>
	<path class="st0" d="M7.5,12.2c-2.3,0-4.2-1.9-4.2-4.2s1.9-4.2,4.2-4.2s4.2,1.9,4.2,4.2C11.8,10.3,9.8,12.2,7.5,12.2z M7.5,5.2
	C6,5.2,4.8,6.5,4.8,8s1.2,2.8,2.8,2.8s2.8-1.2,2.8-2.8S9,5.2,7.5,5.2z"/>
	<path
		class="st0"
		d="M8,16c-4.4,0-8-3.6-8-8s3.6-8,8-8s8,3.6,8,8c0,1.5-0.4,3-1.2,4.2c-0.3,0.5-1.1,1.2-2.3,1.2
	c-0.8,0-1.3-0.3-1.6-0.6c-0.7-0.7-0.6-1.8-0.6-1.9V4h1.5v7c0,0.2,0,0.6,0.2,0.8c0,0,0.2,0.2,0.5,0.2c0.7,0,1.1-0.5,1.1-0.5
	c0.6-1,1-2.2,1-3.4c0-3.6-2.9-6.5-6.5-6.5S1.5,4.4,1.5,8s2.9,6.5,6.5,6.5c0.7,0,1.3-0.1,1.9-0.3l0.4,1.4C9.6,15.9,8.8,16,8,16z"/>
</svg>
