<?xml version="1.0" encoding="utf-8"?>
<!-- Generator: Adobe Illustrator 21.0.0, SVG Export Plug-In . SVG Version: 6.00 Build 0)  -->
<svg version="1.1" id="Capa_1" xmlns="http://www.w3.org/2000/svg" xmlns:xlink="http://www.w3.org/1999/xlink" x="0px" y="0px"
	 viewBox="0 0 110 110" style="enable-background:new 0 0 110 110;" xml:space="preserve">
	 <style type="text/css">
	 	g{fill:#ffb438;}
	 </style>
<g>
	<g>
		<path d="M56.3,85.7c-7,0-13.1-1.6-18.5-4.9c-5.3-3.2-9.9-7.8-14.2-14c-6.3-9.1-12-19.8-17.9-33.6c-0.9-2.2-0.9-4-0.1-5.4
			c0.9-1.5,2.5-2.2,4.7-2.3c4.6-0.1,9.3-0.1,13.9,0c2.8,0.2,5,1.9,6,4.7c2.6,6.6,5.5,12.4,9,17.5c0.9,1.4,1.7,2.6,2.8,3.3
			c0.3-0.7,0.5-1.6,0.6-2.9c0.4-4.5,0.3-8.8-0.2-12.7c-0.2-1.7-1-2.5-2.5-2.8c-1.4-0.2-2.4-1-2.8-2.2c-0.4-1.2-0.1-2.4,0.9-3.7
			c1.2-1.5,2.9-3.1,6.1-3.1l16.3,0.1c4.2,0.9,5,3.6,5.4,6.5l0,0.3l0,18.6c0,0.4,0.2,1.3,0.4,1.7c0.2-0.2,0.5-0.5,0.6-0.7
			c3.8-4.2,6.4-9.3,8.5-13.7c1-2.1,1.9-4.3,2.8-6.8c1.1-2.9,3.1-4.3,5.9-4.3h15.2c0.6,0,1.2,0,1.9,0.2c1.3,0.3,3.1,0.8,4.1,2.6
			c1.1,2,0.4,4.3,0.2,5c-1.4,4.5-4,8.1-6.4,11.7c-1.3,1.8-2.6,3.7-3.9,5.5c-1.3,1.8-2.6,3.6-3.8,5.4c-1.6,2.4-1.6,2.6,0.4,4.6
			c0.8,0.8,1.6,1.6,2.4,2.4c2.4,2.4,5,4.9,7.2,7.7l0.1,0.1l0.6,0.9c1,1.4,2,2.8,2.9,4.4l0.1,0.2c1.1,2.3,1.1,4.9,0,6.8
			c-0.9,1.6-2.4,2.6-4.2,2.7l-0.1,0H86.7c-4.1,0.3-7.8-1.2-10.8-4.6c-1.1-1.1-2.2-2.4-3.2-3.7c-0.8-0.9-1.5-1.8-2.3-2.7l-0.2-0.2
			c-0.6-0.8-1.2-1.4-1.8-1.8l-0.1-0.1c-0.4-0.3-0.7-0.3-0.7-0.3c0,0-0.2,0.1-0.4,0.6c-0.9,1.8-1.1,3.8-1.2,5.7
			c-0.3,5.5-2.9,6.7-6.8,7C58.2,85.6,57.3,85.7,56.3,85.7z M10.1,30.7c0,0.1,0.1,0.2,0.1,0.4C16,44.6,21.5,54.9,27.6,63.7
			c3.9,5.6,8,9.7,12.7,12.5c5.3,3.2,11.4,4.6,18.6,4.1c1.5-0.1,1.8-0.3,1.8-0.3l0,0c0,0,0.2-0.3,0.3-1.7c0.1-2.3,0.4-5.2,1.8-7.9
			c1.1-2.2,2.6-2.9,3.7-3.2c1-0.3,2.7-0.3,4.6,1.1c1.1,0.7,2.1,1.7,3,2.9c0.8,0.9,1.6,1.8,2.4,2.7c1.1,1.2,2,2.4,3.1,3.5
			c2.1,2.3,4.3,3.2,7,3l0.2,0h13.9c0.2-0.1,0.5-0.9,0-1.9c-0.7-1.3-1.6-2.5-2.5-3.8l-0.6-0.8c-2.1-2.5-4.5-4.9-6.8-7.2
			c-0.8-0.8-1.6-1.6-2.4-2.4c-3.8-3.9-4.1-7-1-11.4c1.2-1.8,2.6-3.7,3.9-5.5c1.3-1.8,2.6-3.6,3.8-5.4c2.4-3.4,4.6-6.6,5.7-10.3
			c0.1-0.3,0.1-0.5,0.2-0.7c-0.2-0.1-0.4-0.1-0.8-0.2l-0.1,0c-0.1,0-0.5,0-0.8,0H83.9c-0.7,0-0.9,0-1.3,1c-1,2.6-1.9,4.9-3,7.2
			c-2.2,4.8-5.1,10.3-9.3,14.9c-0.8,0.9-2.8,3.3-5.7,2.4l-0.1,0c-3.2-1.1-4-5.3-3.9-7.3V30.7c-0.2-1.5-0.2-1.6-1.1-1.8H44.1
			c0,0-0.1,0-0.1,0c1.7,1.3,2.9,3.3,3.2,5.8c0.6,4.3,0.7,9,0.2,13.9c-0.1,1.2-0.3,3-1,4.6c-0.7,1.7-1.8,2.7-3.1,3.1
			c-0.9,0.3-2.4,0.3-4.1-0.9c-1.8-1.3-3-3-4.1-4.8c-3.6-5.4-6.7-11.4-9.5-18.5c-0.4-1.1-0.9-1.4-1.6-1.4c-4.4-0.1-9-0.1-13.5,0
			C10.3,30.7,10.2,30.7,10.1,30.7z M41.7,51.4C41.7,51.4,41.7,51.4,41.7,51.4C41.7,51.4,41.7,51.4,41.7,51.4z"/>
	</g>
</g>
</svg>
