<svg xmlns="http://www.w3.org/2000/svg" viewBox="0 0 126.99 115.35"><defs><style>.cls-1,.cls-6{fill:#fff;}.cls-1,.cls-2,.cls-3,.cls-4,.cls-5,.cls-6{fill-rule:evenodd;}.cls-2{fill:#777271;}.cls-3{fill:#948f8e;}.cls-4{fill:#f8a800;}.cls-5{fill:#fcc24f;}.cls-6{stroke:#fff;stroke-miterlimit:22.93;stroke-width:0.57px;}</style></defs><title>logo</title><g id="Layer_2" data-name="Layer 2"><g id="_1" data-name="???? 1"><polygon class="cls-1" points="63.04 45.89 109.97 74.08 63.22 100 15.72 73 63.04 45.89"/><polygon class="cls-2" points="109.97 74.08 63.22 100 63.22 115.35 126.99 79.34 63.16 40.93 63.04 45.89 109.97 74.08"/><polygon class="cls-3" points="63.22 100 15.72 73 63.04 45.89 63.16 40.93 0 76.94 63.22 115.35 63.22 100"/><polygon class="cls-1" points="63.04 26 109.97 54.19 63.22 80.11 15.72 53.1 63.04 26"/><polygon class="cls-4" points="109.97 54.19 63.22 80.11 63.22 95.46 126.99 59.45 63.16 21.04 63.04 26 109.97 54.19"/><polygon class="cls-5" points="63.22 80.11 15.72 53.1 63.04 26 63.16 21.04 0 57.05 63.22 95.46 63.22 80.11"/><polygon class="cls-2" points="109.97 33.15 63.22 59.07 63.22 74.42 126.99 38.41 63.16 0 63.04 4.96 109.97 33.15"/><polygon class="cls-3" points="63.22 59.07 15.72 32.07 63.04 4.96 63.16 0 0 36.01 63.22 74.42 63.22 59.07"/><polygon class="cls-6" points="15.72 32.07 63.22 59.07 109.97 33.15 63.04 4.96 15.72 32.07"/></g></g></svg>