<svg xmlns="http://www.w3.org/2000/svg" xmlns:xlink="http://www.w3.org/1999/xlink" width="31" height="30" viewBox="0 0 31 30"><defs><path id="29ena" d="M469.4 314.75h5.34c.72 1.5 1.15 3.14 1.22 4.86h-6.14a31.53 31.53 0 0 0-.43-4.86zm-2.35-6.87a13.8 13.8 0 0 1 7.17 5.9h-5a19.56 19.56 0 0 0-2.17-5.9zm-4.48 5.9V307c1.1.04 2.17.2 3.2.48a18.92 18.92 0 0 1 2.41 6.3zm-6.81 11.66a31.3 31.3 0 0 1-.44-4.86h6.21v4.86zm-.01-10.69h5.78v4.86h-6.21c.02-1.83.19-3.43.43-4.86zm2.6-7.3c1.02-.25 2.08-.42 3.18-.45v6.78h-5.61a18.9 18.9 0 0 1 2.43-6.32zm-8.62 6.33c1.6-2.71 4.2-4.84 7.34-5.94a19.52 19.52 0 0 0-2.19 5.94zm4.55 5.83h-6.27c.07-1.72.48-3.36 1.2-4.86h5.5a31.5 31.5 0 0 0-.43 4.86zm.44 5.83h-5.47a12.3 12.3 0 0 1-1.25-4.86h6.28c.03 1.84.2 3.44.44 4.86zm.17.98a19.08 19.08 0 0 0 2.21 5.95 13.8 13.8 0 0 1-7.36-5.95zm6.64 0v6.78c-1.09-.04-2.14-.2-3.15-.45-.78-1.2-1.8-3.26-2.44-6.33zm6.63 0a18.66 18.66 0 0 1-2.42 6.3c-1.02.27-2.08.41-3.17.46v-6.76zm-5.6-5.84h6.22c-.03 1.84-.2 3.44-.44 4.86h-5.77zm6.22-.97h-6.21v-4.86h5.78c.24 1.43.4 3.03.43 4.86zm1.04.97h6.13a12.38 12.38 0 0 1-1.24 4.86h-5.33c.24-1.42.41-3.02.44-4.86zm4.4 5.84a13.74 13.74 0 0 1-7.2 5.9 19.11 19.11 0 0 0 2.19-5.9z"/></defs><g><g opacity=".5" transform="translate(-446 -305)"><use fill="#fff" xlink:href="#29ena"/><use fill="#1e1e1e" xlink:href="#29ena"/></g></g></svg>