<?xml version="1.0" encoding="utf-8"?>
<!-- Generator: Adobe Illustrator 21.0.0, SVG Export Plug-In . SVG Version: 6.00 Build 0)  -->
<svg version="1.1" xmlns="http://www.w3.org/2000/svg" xmlns:xlink="http://www.w3.org/1999/xlink" x="0px" y="0px"
	 viewBox="0 0 157.9 275.5" enable-background="new 0 0 157.9 275.5" xml:space="preserve">
<g id="Слой_2">
</g>
<g id="Слой_3">
	<g>
		<path fill="#F4F4F4" d="M41.5,118.6L18,132.9l-8.5,33.7l27.3-21.2l4-23.2l1,0.1l3.4,36l20.9,23.2l0.2-31.4L41.5,118.6z
			 M30.9,127.8l3.9,7.8l-12.6-2.5L30.9,127.8z M13.5,160.5l0.2-0.6l1-0.3L13.5,160.5z M14.3,157.2l1.5-6l2.4,5L14.3,157.2z
			 M20.4,155.2l-3-6.3l11.2,0L20.4,155.2z M17.1,146.4l2.6-10.4l9.7,10.3L17.1,146.4z M34.6,144.1l-2.4,1.9l-9.7-10.4l13.2,2.6
			L34.6,144.1z M36.5,133.5l-3.5-6.9l5.3-3.2L36.5,133.5z M44.8,128.2l-0.2-1.7l0.5,0.6L44.8,128.2z M62.6,149.4l-14.2,1.5l6.6-11.2
			L62.6,149.4z M47.1,129.6l4.4,5.6l-5.7-1.4L47.1,129.6z M45.6,136.6l7.1,1.8l-6,10.1L45.6,136.6z M47.5,157.3l-0.3-3.5l14.4-1.5
			l-9.4,10.1L47.5,157.3z M63.7,175.2l-7.9-8.8l7.9,1.7L63.7,175.2z M63.7,165.4l-8.9-1.9l9-9.6L63.7,165.4z"/>
		<rect x="84.2" y="179.8" fill="#6B6C70" width="42.7" height="12.1"/>
		<path fill="#6B6C70" d="M155.8,197.9c0,5.6-4.5,10.1-10.1,10.1H61.8c-5.6,0-10.1-4.5-10.1-10.1l0,0c0-5.6,4.5-10.1,10.1-10.1h83.9
			C151.2,187.8,155.8,192.3,155.8,197.9L155.8,197.9z"/>
		<path fill="#878A8C" d="M153.6,197.9c0,5-4.3,9-9.7,9H63.5c-5.3,0-9.7-4-9.7-9l0,0c0-5,4.3-9,9.7-9h80.4
			C149.3,188.9,153.6,192.9,153.6,197.9L153.6,197.9z"/>
		<polygon fill="#FFB345" points="103.7,128.8 74.9,128.8 61.9,183.7 146.1,183.7 146.1,164.6 115.8,164.6 111.6,128.8 		"/>
		<polygon fill="#FFE3B8" points="106.3,133.3 78.8,133.3 68.3,177.6 95.9,177.6 109.6,165.2 		"/>
		<g>
			<circle fill="#6B6C70" cx="62.4" cy="197.9" r="8.6"/>
			<circle fill="#878A8C" cx="62.4" cy="197.9" r="4.6"/>
			<path fill="#6B6C70" d="M59,198.7c0-2.2,1.8-3.9,3.9-3.9c1.3,0,2.4,0.6,3.1,1.5c-0.6-1.4-2-2.4-3.6-2.4c-2.2,0-3.9,1.8-3.9,3.9
				c0,0.9,0.3,1.8,0.8,2.4C59.1,199.7,59,199.2,59,198.7z"/>
		</g>
		<g>
			<g>
				<path fill="#6B6C70" d="M75.2,189.5c-1.3,0-2.4,1.1-2.4,2.4c0,1.3,1.1,2.4,2.4,2.4c1.3,0,2.4-1.1,2.4-2.4
					C77.6,190.6,76.5,189.5,75.2,189.5z"/>
			</g>
			<g>
				<ellipse fill="#6B6C70" cx="81.6" cy="191.9" rx="2.4" ry="2.4"/>
			</g>
			<g>
				<circle fill="#6B6C70" cx="88.1" cy="191.9" r="2.4"/>
			</g>
			<g>
				<circle fill="#6B6C70" cx="94.5" cy="191.9" r="2.4"/>
			</g>
			<g>
				<ellipse fill="#6B6C70" cx="101" cy="191.9" rx="2.4" ry="2.4"/>
			</g>
			<g>
				<circle fill="#6B6C70" cx="107.4" cy="191.9" r="2.4"/>
			</g>
			<g>
				<circle fill="#6B6C70" cx="113.8" cy="191.9" r="2.4"/>
			</g>
			<g>
				<circle fill="#6B6C70" cx="120.3" cy="191.9" r="2.4"/>
			</g>
			<g>
				<circle fill="#6B6C70" cx="126.7" cy="191.9" r="2.4"/>
			</g>
			<g>
				<ellipse fill="#6B6C70" cx="133.2" cy="191.9" rx="2.4" ry="2.4"/>
			</g>
		</g>
		<g>
			<g>
				<path fill="#6B6C70" d="M75.2,201.7c-1.3,0-2.4,1.1-2.4,2.4c0,1.3,1.1,2.4,2.4,2.4c1.3,0,2.4-1.1,2.4-2.4
					C77.6,202.7,76.5,201.7,75.2,201.7z"/>
			</g>
			<g>
				<circle fill="#6B6C70" cx="81.6" cy="204" r="2.4"/>
			</g>
			<g>
				<circle fill="#6B6C70" cx="88.1" cy="204" r="2.4"/>
			</g>
			<g>
				<circle fill="#6B6C70" cx="94.5" cy="204" r="2.4"/>
			</g>
			<g>
				<circle fill="#6B6C70" cx="101" cy="204" r="2.4"/>
			</g>
			<g>
				<circle fill="#6B6C70" cx="107.4" cy="204" r="2.4"/>
			</g>
			<g>
				<circle fill="#6B6C70" cx="113.8" cy="204" r="2.4"/>
			</g>
			<g>
				<circle fill="#6B6C70" cx="120.3" cy="204" r="2.4"/>
			</g>
			<g>
				<circle fill="#6B6C70" cx="126.7" cy="204" r="2.4"/>
			</g>
			<g>
				<circle fill="#6B6C70" cx="133.2" cy="204" r="2.4"/>
			</g>
		</g>
		<g>
			<circle fill="#6B6C70" cx="145" cy="197.9" r="8.5"/>
			<ellipse fill="#878A8C" cx="145" cy="197.9" rx="4.6" ry="4.6"/>
			<path fill="#6B6C70" d="M141.6,198.7c0-2.2,1.8-3.9,3.9-3.9c1.3,0,2.4,0.6,3.1,1.5c-0.6-1.4-2-2.4-3.6-2.4
				c-2.2,0-3.9,1.8-3.9,3.9c0,0.9,0.3,1.8,0.8,2.4C141.7,199.7,141.6,199.2,141.6,198.7z"/>
		</g>
		<polygon fill="#6B6C70" points="9.5,166.6 1.3,176.7 10.4,189.3 30.5,182.1 29.2,181.1 26.8,181.5 12.4,170.2 11.5,165.1 		"/>
		<g>
			<circle fill="#6B6C70" cx="41.5" cy="118.6" r="2.7"/>
		</g>
		<polyline fill="#878A8C" points="4.3,176.5 10.2,168 9.5,168 2.7,176.6 10.8,187.8 26,183 11.3,186.1 		"/>
		<g>
			<circle fill="#6B6C70" cx="10.4" cy="165.8" r="2.7"/>
		</g>
		<g>
			<circle fill="#878A8C" cx="10.4" cy="165.8" r="1.5"/>
		</g>
		<g>
			<circle fill="#878A8C" cx="41.5" cy="118.6" r="1.5"/>
		</g>
		<g>
			<rect x="70.9" y="124.6" fill="#FFB345" width="42" height="5.4"/>
			<polygon fill="#FFE3B8" points="111.8,125.2 71.9,125.2 71.9,126.6 71.9,128.6 71.9,129.4 74.7,127.2 75.5,126.6 111.8,126.6 			
				"/>
		</g>
		<path fill="#F4F4F4" d="M99.9,135.3H81.6l-9.8,40h7.4C79.3,175.3,77.8,152.7,99.9,135.3z"/>
	</g>
</g>
</svg>
