<?xml version="1.0" encoding="utf-8"?>
<!-- Generator: Adobe Illustrator 21.0.0, SVG Export Plug-In . SVG Version: 6.00 Build 0)  -->
<svg version="1.1" id="Слой_2" xmlns="http://www.w3.org/2000/svg" xmlns:xlink="http://www.w3.org/1999/xlink" x="0px" y="0px"
	 viewBox="0 0 100 100" style="enable-background:new 0 0 100 100;" xml:space="preserve">
<style type="text/css">
	.st0{fill-rule:evenodd;clip-rule:evenodd;fill:#FFB345;}
	.st1{fill-rule:evenodd;clip-rule:evenodd;fill:#FFE3B8;}
	.st2{fill:#FFFFFF;}
	.st3{fill-rule:evenodd;clip-rule:evenodd;fill:#878A8C;}
	.st4{fill-rule:evenodd;clip-rule:evenodd;fill:#6B6C70;}
	.st5{fill-rule:evenodd;clip-rule:evenodd;fill:#F7F3EE;}
</style>
<g>
	<path class="st0" d="M55.9,94.4c-2.2,3.3-6.6,4.1-9.8,1.8c-3.1-2.3-4.1-6.5-2-9.8L12.7,62.9L54.2,1.3l42.9,32.1L55.9,94.4z"/>
	<path class="st1" d="M50.3,97.6c-0.8,0-1.7-0.1-2.5-0.5l41.5-61.6c0.1-0.1,0.1-0.3,0.1-0.5l0,0c0-0.1-0.1-0.3-0.2-0.4L55.9,9.8
		c-0.1-0.1-0.3-0.1-0.4-0.1l0,0c-0.2,0-0.3,0.1-0.4,0.3L17.2,66.3l-1.9-1.4L53.3,8.6c0.5-0.7,1.1-1.1,1.8-1.2v0
		c0.7-0.1,1.5,0,2.1,0.5l33.2,24.8c0.6,0.5,1,1.2,1.1,2l0,0l0,0c0.1,0.8,0,1.6-0.5,2.2L50.3,97.6z"/>
	<path class="st1" d="M13.3,69.5l-0.2,0.3l2.2,1.6l2.3,1.7l0.3,0.2l3.7,2.7l0.3,0.2l3.6,2.7l0.3,0.2l3.7,2.7l0.3,0.2l3.6,2.7
		l0.3,0.2l3.7,2.7l0.3,0.2l3.6,2.7l0.3,0.2l3.7,2.7l0.3,0.2l1.6,1.2l1.6,1.2l0.2-0.3l-3.3-2.4l2.6-3.9l3.3,2.4l0.2-0.3l-3.3-2.4
		l2.6-3.9l3.3,2.4l0.2-0.3l-3.3-2.4l2.6-3.9l3.3,2.4l0.2-0.3L53.7,81l2.6-3.9l3.3,2.4l0.2-0.3l-3.2-2.4l2.6-3.9l3.2,2.4l0.2-0.3
		l-3.3-2.4l2.6-3.9l3.3,2.4l0.2-0.3l-3.3-2.4l2.6-3.9l3.3,2.4l0.2-0.3L65,64.3l2.6-3.9l3.3,2.4l0.2-0.3l-3.3-2.4l2.6-3.9l3.3,2.4
		l0.2-0.3l-3.2-2.4l2.6-3.9l3.2,2.4l0.2-0.3l-3.3-2.4l2.6-3.9l3.3,2.4l0.2-0.3l-3.3-2.4l2.6-3.9l3.3,2.4l0.2-0.3L79,43.4l2.6-3.9
		l3.3,2.4l0.2-0.3l-3.3-2.4l2.6-3.9l3.3,2.4l0.2-0.3l-3.3-2.4l1.7-2.5l-0.2-0.2l-1.7,2.5l-3.7-2.7l1.7-2.5l-0.3-0.2L80.5,32
		l-3.6-2.7l1.7-2.5l-0.2-0.2l-1.7,2.5L73,26.3l1.7-2.5l-0.3-0.2l-1.7,2.5l-3.6-2.7l1.7-2.5l-0.2-0.2l-1.7,2.5l-3.7-2.7l1.7-2.5
		l-0.3-0.2l-1.7,2.5l-3.6-2.7l1.7-2.5l-0.3-0.2L61,17.4l-3.7-2.7l1.7-2.5L58.8,12l-1.7,2.5L53.8,12l-0.2,0.3l3.3,2.5l-2.6,3.9
		L51,16.2l-0.2,0.3l3.3,2.5l-2.6,3.9l-3.3-2.5L48,20.6l3.3,2.5L48.7,27l-3.3-2.5l-0.2,0.3l3.3,2.5l-2.6,3.9l-3.3-2.5l-0.2,0.3
		l3.3,2.5l-2.6,3.9l-3.3-2.5l-0.2,0.3l3.3,2.5l-2.6,3.9L36.9,37l-0.2,0.3l3.3,2.5l-2.6,3.9l-3.3-2.5l-0.2,0.3l3.3,2.5l-2.6,3.9
		l-3.3-2.5l-0.2,0.3l3.3,2.5L31.8,52l-3.3-2.5l-0.2,0.3l3.3,2.5L29,56.2l-3.3-2.5L25.5,54l3.3,2.5l-2.6,3.9l-3.3-2.5l-0.2,0.3
		l3.3,2.5l-2.6,3.9L20,62.1l-0.2,0.3l3.3,2.5l-2.6,3.9l-3.3-2.5l-0.2,0.3l3.3,2.5l-2.6,3.9L13.3,69.5z M57.2,14.9l-2.6,3.9l3.6,2.7
		l2.6-3.9L57.2,14.9z M54.4,19.1L51.7,23l3.7,2.7l2.6-3.9L54.4,19.1z M51.6,23.3l-2.6,3.9l3.7,2.7l2.6-3.9L51.6,23.3z M48.7,27.4
		l-2.6,3.9l3.7,2.7l2.6-3.9L48.7,27.4z M45.9,31.6l-2.6,3.9l3.7,2.7l2.6-3.9L45.9,31.6z M43.1,35.8l-2.6,3.9l3.6,2.7l2.6-3.9
		L43.1,35.8z M40.3,40l-2.6,3.9l3.7,2.7l2.6-3.9L40.3,40z M37.5,44.1l-2.6,3.9l3.7,2.7l2.6-3.9L37.5,44.1z M34.7,48.3l-2.6,3.9
		l3.7,2.7l2.6-3.9L34.7,48.3z M31.9,52.5l-2.6,3.9l3.7,2.7l2.6-3.9L31.9,52.5z M29.1,56.7l-2.6,3.9l3.6,2.7l2.6-3.9L29.1,56.7z
		 M26.3,60.8l-2.6,3.9l3.7,2.7l2.6-3.9L26.3,60.8z M23.5,65l-2.6,3.9l3.7,2.7l2.6-3.9L23.5,65z M20.7,69.2L18,73.1l6.3-1.2
		L20.7,69.2z M64.6,64.4l-3.7-2.7l-2.6,3.9l3.6,2.7L64.6,64.4z M60.7,61.5L57,58.7l-2.6,3.9l3.7,2.7L60.7,61.5z M56.8,58.5l-3.7-2.7
		l-2.6,3.9l3.7,2.7L56.8,58.5z M52.9,55.6l-3.7-2.7l-2.6,3.9l3.7,2.7L52.9,55.6z M49,52.7L45.3,50l-2.6,3.9l3.7,2.7L49,52.7z
		 M45.1,49.8l-3.7-2.7L38.8,51l3.7,2.7L45.1,49.8z M41.6,46.8l3.6,2.7l2.6-3.9l-3.6-2.7L41.6,46.8z M45.5,49.7l3.7,2.7l2.6-3.9
		l-3.7-2.7L45.5,49.7z M49.4,52.6l3.6,2.7l2.6-3.9L52,48.7L49.4,52.6z M53.3,55.5l3.7,2.7l2.6-3.9l-3.7-2.7L53.3,55.5z M57.2,58.5
		l3.6,2.7l2.6-3.9l-3.6-2.7L57.2,58.5z M61.1,61.4l3.7,2.7l2.6-3.9l-3.7-2.7L61.1,61.4z M44.4,42.6l3.7,2.7l2.6-3.9L47,38.7
		L44.4,42.6z M48.3,45.5l3.6,2.7l2.6-3.9l-3.6-2.7L48.3,45.5z M52.2,48.4l3.7,2.7l2.6-3.9l-3.7-2.7L52.2,48.4z M56.1,51.4l3.6,2.7
		l2.6-3.9l-3.6-2.7L56.1,51.4z M60,54.3l3.7,2.7l2.6-3.9l-3.7-2.7L60,54.3z M63.9,57.2l3.6,2.7l2.6-3.9l-3.6-2.7L63.9,57.2z
		 M84.2,35.2l-3.6-2.7L78,36.3l3.6,2.7L84.2,35.2z M80.3,32.3l-3.7-2.7L74,33.4l3.7,2.7L80.3,32.3z M76.4,29.3l-3.6-2.7l-2.6,3.9
		l3.6,2.7L76.4,29.3z M72.5,26.4l-3.7-2.7l-2.6,3.9l3.7,2.7L72.5,26.4z M68.6,23.5L65,20.8l-2.6,3.9l3.6,2.7L68.6,23.5z M64.7,20.6
		l-3.7-2.7l-2.6,3.9l3.7,2.7L64.7,20.6z M81.4,39.3l-3.7-2.7l-2.6,3.9l3.7,2.7L81.4,39.3z M77.5,36.4l-3.6-2.7l-2.6,3.9l3.6,2.7
		L77.5,36.4z M73.6,33.5L70,30.8l-2.6,3.9l3.7,2.7L73.6,33.5z M69.7,30.6l-3.6-2.7l-2.6,3.9l3.6,2.7L69.7,30.6z M65.8,27.7l-3.7-2.7
		l-2.6,3.9l3.7,2.7L65.8,27.7z M61.9,24.8L58.3,22l-2.6,3.9l3.6,2.7L61.9,24.8z M78.6,43.5L75,40.8l-2.6,3.9l3.6,2.7L78.6,43.5z
		 M74.7,40.6l-3.7-2.7l-2.6,3.9l3.7,2.7L74.7,40.6z M70.8,37.7l-3.7-2.7l-2.6,3.9l3.7,2.7L70.8,37.7z M66.9,34.8L63.3,32l-2.6,3.9
		l3.7,2.7L66.9,34.8z M63,31.8l-3.7-2.7L56.7,33l3.7,2.7L63,31.8z M59.1,28.9l-3.7-2.7l-2.6,3.9l3.7,2.7L59.1,28.9z M75.8,47.7
		L72.1,45l-2.6,3.9l3.7,2.7L75.8,47.7z M71.9,44.8L68.3,42l-2.6,3.9l3.7,2.7L71.9,44.8z M68,41.8l-3.7-2.7L61.7,43l3.7,2.7L68,41.8z
		 M64.1,38.9l-3.7-2.7l-2.6,3.9l3.7,2.7L64.1,38.9z M60.2,36l-3.7-2.7l-2.6,3.9l3.7,2.7L60.2,36z M56.3,33.1l-3.7-2.7L50,34.3
		l3.7,2.7L56.3,33.1z M73,51.9l-3.7-2.7L66.7,53l3.7,2.7L73,51.9z M69.1,48.9l-3.6-2.7l-2.6,3.9l3.6,2.7L69.1,48.9z M65.2,46
		l-3.7-2.7l-2.6,3.9l3.7,2.7L65.2,46z M61.3,43.1l-3.6-2.7L55,44.3l3.6,2.7L61.3,43.1z M57.4,40.2l-3.7-2.7l-2.6,3.9l3.7,2.7
		L57.4,40.2z M53.5,37.3l-3.6-2.7l-2.6,3.9l3.6,2.7L53.5,37.3z M21.9,76l6.3-1.2l-3.7-2.7L21.9,76z M25.8,78.9l6.3-1.2L28.5,75
		L25.8,78.9z M29.7,81.8l6.3-1.2l-3.7-2.7L29.7,81.8z M33.6,84.8l6.3-1.2l-3.7-2.7L33.6,84.8z M37.5,87.7l6.3-1.2l-3.7-2.7
		L37.5,87.7z M41.4,90.6l3.7,2.7l2.6-3.9L44,86.7L41.4,90.6z M24.7,71.8l3.7,2.7l2.6-3.9l-3.7-2.7L24.7,71.8z M28.6,74.7l3.7,2.7
		l2.6-3.9l-3.7-2.7L28.6,74.7z M32.5,77.7l3.7,2.7l2.6-3.9l-3.7-2.7L32.5,77.7z M36.4,80.6l3.7,2.7l2.6-3.9l-3.7-2.7L36.4,80.6z
		 M40.3,83.5l3.7,2.7l2.6-3.9l-3.7-2.7L40.3,83.5z M44.2,86.4l3.7,2.7l2.6-3.9l-3.7-2.7L44.2,86.4z M27.5,67.7l3.6,2.7l2.6-3.9
		l-3.6-2.7L27.5,67.7z M31.4,70.6l3.7,2.7l2.6-3.9l-3.7-2.7L31.4,70.6z M35.3,73.5l3.6,2.7l2.6-3.9L38,69.6L35.3,73.5z M39.2,76.4
		l3.7,2.7l2.6-3.9l-3.7-2.7L39.2,76.4z M43.1,79.3l3.6,2.7l2.6-3.9l-3.6-2.7L43.1,79.3z M47,82.2l3.7,2.7l2.6-3.9l-3.7-2.7L47,82.2z
		 M30.3,63.5l3.7,2.7l2.6-3.9L33,59.6L30.3,63.5z M34.3,66.4l3.6,2.7l2.6-3.9l-3.6-2.7L34.3,66.4z M38.1,69.3l3.7,2.7l2.6-3.9
		l-3.7-2.7L38.1,69.3z M42.1,72.2l3.6,2.7l2.6-3.9l-3.6-2.7L42.1,72.2z M45.9,75.2l3.7,2.7l2.6-3.9l-3.7-2.7L45.9,75.2z M49.9,78.1
		l3.6,2.7l2.6-3.9l-3.6-2.7L49.9,78.1z M33.2,59.3l3.6,2.7l2.6-3.9l-3.6-2.7L33.2,59.3z M37.1,62.2l3.7,2.7l2.6-3.9l-3.7-2.7
		L37.1,62.2z M41,65.1l3.6,2.7l2.6-3.9l-3.6-2.7L41,65.1z M44.9,68.1l3.7,2.7l2.6-3.9l-3.7-2.7L44.9,68.1z M48.8,71l3.6,2.7l2.6-3.9
		l-3.6-2.7L48.8,71z M52.7,73.9l3.7,2.7l2.6-3.9L55.3,70L52.7,73.9z M36,55.1l3.7,2.7l2.6-3.9l-3.7-2.7L36,55.1z M39.9,58.1l3.7,2.7
		l2.6-3.9l-3.7-2.7L39.9,58.1z M43.8,61l3.7,2.7l2.6-3.9l-3.7-2.7L43.8,61z M47.7,63.9l3.7,2.7l2.6-3.9L50.3,60L47.7,63.9z
		 M51.6,66.8l3.7,2.7l2.6-3.9l-3.7-2.7L51.6,66.8z M55.5,69.7l3.7,2.7l2.6-3.9l-3.7-2.7L55.5,69.7z"/>
	<path class="st2" d="M53.8,20.2c-0.1,0.1-0.2,0-0.3,0c-0.1-0.1-0.1-0.2,0-0.3l0.1,0l0,0l0.1,0l0,0l0.1,0l0,0c0.1-0.1,0.2-0.1,0.3,0
		c0.1,0.1,0,0.2,0,0.3l0,0l0,0L54,20l0,0L53.8,20.2L53.8,20.2z M43.5,58.9l5,3.7l9.6-6.6l-11.4-8.5l-1.6,5.6L43.5,58.9z M48.9,62.9
		l6.2,4.6l3.1-11L48.9,62.9z M45.3,75.1L45.3,75.1l-11.6-8.7l0,0c-0.1-0.1-0.1-0.2,0-0.2c0,0,0,0,0,0l1.6-5.9l1.7-5.9c0,0,0,0,0,0
		l0,0l0,0c0,0,0,0,0,0l4.7-3.6l4.7-3.6c0-0.1,0.1-0.1,0.2-0.1c0,0,0,0,0,0l0,0l0,0l11.9,8.9l0,0c0,0,0.1,0.1,0,0.2v0l-3.3,11.7
		c0,0,0,0.1,0,0.2c0,0,0,0,0,0c0,0.1-0.1,0.1-0.1,0.1l-9.4,7.1l0,0c0,0-0.1,0-0.1,0c0,0-0.1,0.1-0.2,0l-0.1,0
		C45.3,75.3,45.3,75.2,45.3,75.1L45.3,75.1z M45.4,74.6L48.3,63l-5-3.7l-4.6,3.5l-4.5,3.4L45.4,74.6z M48.6,63.2l-2.8,11.5l9-6.8
		L48.6,63.2z M42,50.9l-4.7,3.6l-1.6,5.8l-1.5,5.3l9-6.8l3.1-11.2L42,50.9z M42.7,44.7c-0.2,0-0.3-0.1-0.4-0.2
		c0-0.2,0.1-0.3,0.2-0.4l0.1,0l0.1,0l0.1,0l0.1,0l0.1,0l0,0c0.2,0,0.3,0.1,0.4,0.3c0,0.2-0.1,0.3-0.2,0.4l0,0l-0.1,0l-0.1,0l-0.1,0
		l-0.1,0L42.7,44.7z M41,44.6c0.2,0,0.3,0,0.4,0.2c0,0.2,0,0.3-0.2,0.4h0l-0.1,0l-0.1,0l-0.1,0l-0.1,0l-0.1,0h0
		c-0.2,0.1-0.3,0-0.4-0.2c0-0.2,0-0.3,0.2-0.4h0l0.1,0l0.1,0l0.1,0l0.1,0L41,44.6L41,44.6z M38.9,45.5c0.1-0.1,0.3,0,0.4,0.1
		c0.1,0.2,0,0.3-0.1,0.4l-0.1,0l-0.1,0l-0.1,0l-0.1,0.1l-0.1,0l-0.1,0c-0.2,0.1-0.3,0-0.4-0.1c-0.1-0.2,0-0.3,0.1-0.4l0.1,0l0.1,0
		l0.1,0l0.1-0.1L38.9,45.5L38.9,45.5z M36.7,46.8c0.1-0.1,0.3-0.1,0.4,0.1c0.1,0.1,0.1,0.3-0.1,0.4l0,0L37,47.4l-0.1,0.1l-0.1,0
		l-0.1,0.1l-0.1,0.1l0,0c-0.1,0.1-0.3,0.1-0.4-0.1c-0.1-0.1-0.1-0.3,0.1-0.4l0,0l0.1-0.1l0.1-0.1l0.1-0.1l0.1-0.1L36.7,46.8
		L36.7,46.8z M34.8,48.4c0.1-0.1,0.3-0.1,0.4,0c0.1,0.1,0.1,0.3,0,0.4l0,0l-0.1,0.1L35,49L35,49.1l-0.1,0.1l-0.1,0.1l0,0
		c-0.1,0.1-0.3,0.1-0.4,0c-0.1-0.1-0.1-0.3,0-0.5l0.1,0l0.1-0.1l0.1-0.1l0.1-0.1L34.8,48.4L34.8,48.4L34.8,48.4z M33.1,50.2
		c0.1-0.1,0.3-0.1,0.4,0c0.1,0.1,0.1,0.3,0,0.4l0,0.1l-0.1,0.1l-0.1,0.1L33.3,51L33.2,51l-0.1,0.1l0,0c-0.1,0.1-0.3,0.2-0.4,0
		c-0.1-0.1-0.2-0.3-0.1-0.4h0l0.1-0.1l0.1-0.1l0.1-0.1l0.1-0.1L33.1,50.2L33.1,50.2z M31.7,71.9c-0.1-0.2,0-0.3,0.1-0.4
		c0.1-0.1,0.3,0,0.4,0.1l0,0.1l0,0.1l0.1,0.1l0,0.1l0.1,0.1l0.1,0.1l0,0c0.1,0.1,0.1,0.3-0.1,0.4c-0.1,0.1-0.3,0.1-0.4-0.1l0,0
		L32,72.4l0-0.1l-0.1-0.1l-0.1-0.1L31.7,71.9L31.7,71.9z M33.1,74c-0.1-0.1-0.1-0.3,0-0.5c0.1-0.1,0.3-0.1,0.4,0l0,0.1l0.1,0.1
		l0.1,0.1l0.1,0.1l0.1,0.1l0.1,0.1v0c0.1,0.1,0.1,0.3,0,0.5c-0.1,0.1-0.3,0.1-0.4,0h0l-0.1-0.1l-0.1-0.1l-0.1-0.1l-0.1-0.1L33.1,74
		L33.1,74z M34.9,75.9c-0.1-0.1-0.1-0.3,0-0.5c0.1-0.1,0.3-0.1,0.4,0l0,0l0.1,0.1l0.1,0.1l0.1,0.1l0.1,0.1l0.1,0.1l0,0
		c0.1,0.1,0.1,0.3,0,0.5c-0.1,0.1-0.3,0.2-0.4,0l0,0l-0.1-0.1l-0.1-0.1L35,76L35,76L34.9,75.9L34.9,75.9z M36.8,77.4
		c-0.1-0.1-0.2-0.3-0.1-0.4c0.1-0.1,0.3-0.2,0.4-0.1h0l0.1,0.1l0.1,0.1l0.1,0l0.1,0.1l0.1,0.1l0.1,0c0.1,0.1,0.2,0.3,0.1,0.4
		c-0.1,0.2-0.3,0.2-0.4,0.1l-0.1,0l-0.1-0.1l-0.1-0.1l-0.1,0L36.8,77.4L36.8,77.4L36.8,77.4z M38.9,78.7c-0.2-0.1-0.2-0.3-0.2-0.4
		c0.1-0.2,0.3-0.2,0.4-0.2l0.1,0l0.1,0l0.1,0l0.1,0l0.1,0l0.1,0l0,0c0.2,0.1,0.2,0.3,0.2,0.4C39.8,79,39.6,79,39.5,79l0,0l-0.1,0
		l-0.1,0l-0.1,0l-0.1,0L38.9,78.7L38.9,78.7z M41.2,79.7c-0.2,0-0.2-0.2-0.2-0.4c0-0.2,0.2-0.3,0.4-0.2h0l0.1,0l0.1,0l0.1,0l0.1,0
		l0.1,0l0,0c0.2,0,0.3,0.2,0.2,0.4c0,0.2-0.2,0.3-0.4,0.2l-0.1,0l-0.1,0l-0.1,0l-0.1,0l-0.1,0L41.2,79.7L41.2,79.7z M43.6,80.3
		c-0.2,0-0.3-0.2-0.2-0.4c0-0.2,0.2-0.3,0.3-0.3h0l0.1,0l0.1,0l0.1,0l0.1,0l0.1,0h0.1c0.2,0,0.3,0.2,0.3,0.4c0,0.2-0.2,0.3-0.3,0.3
		h-0.1l-0.1,0l-0.1,0l-0.1,0l-0.1,0L43.6,80.3L43.6,80.3z M46,80.5c-0.2,0-0.3-0.2-0.3-0.3c0-0.2,0.1-0.3,0.3-0.3h0h0.1h0.1h0.1h0.1
		h0.1h0c0.2,0,0.3,0.1,0.3,0.3c0,0.2-0.1,0.3-0.3,0.3h0h-0.1h-0.1h-0.1h-0.1H46L46,80.5z M48.5,80.4c-0.2,0-0.3-0.1-0.3-0.3
		c0-0.2,0.1-0.3,0.3-0.4h0.1l0.1,0l0.1,0l0.1,0l0.1,0l0.1,0c0.2,0,0.3,0.1,0.3,0.3c0,0.2-0.1,0.3-0.3,0.4l-0.1,0l-0.1,0l-0.1,0
		l-0.1,0L48.5,80.4L48.5,80.4z M50.9,79.9c-0.2,0-0.3,0-0.4-0.2c0-0.2,0.1-0.3,0.2-0.4l0.1,0l0.1,0l0.1,0l0.1,0l0.1,0l0.1,0
		c0.2,0,0.3,0,0.4,0.2c0,0.2,0,0.3-0.2,0.4l-0.1,0l-0.1,0l-0.1,0l-0.1,0L50.9,79.9L50.9,79.9z M53.2,79.1c-0.2,0.1-0.3,0-0.4-0.2
		c-0.1-0.2,0-0.3,0.2-0.4l0.1,0l0.1,0l0.1,0l0.1,0l0.1,0l0.1,0c0.1-0.1,0.3,0,0.4,0.2c0.1,0.2,0,0.3-0.1,0.4l-0.1,0l-0.1,0l-0.1,0
		l-0.1,0L53.2,79.1L53.2,79.1z M55.4,77.9c-0.1,0.1-0.3,0-0.4-0.1c-0.1-0.1,0-0.3,0.1-0.4l0,0l0.1-0.1l0.1,0l0.1-0.1l0.1,0l0.1-0.1
		l0,0c0.1-0.1,0.3,0,0.4,0.1c0.1,0.1,0,0.3-0.1,0.4l0,0l-0.1,0.1l-0.1,0.1l-0.1,0l-0.1,0.1L55.4,77.9L55.4,77.9z M57.4,76.5
		c-0.1,0.1-0.3,0.1-0.4,0c-0.1-0.1-0.1-0.3,0-0.4l0,0l0.1-0.1l0.1-0.1l0.1-0.1l0.1-0.1l0.1-0.1l0,0c0.1-0.1,0.3-0.1,0.4,0
		c0.1,0.1,0.1,0.3,0,0.5l0,0l-0.1,0.1l-0.1,0.1l-0.1,0.1L57.4,76.5L57.4,76.5L57.4,76.5z M59.2,74.7c-0.1,0.1-0.3,0.1-0.4,0
		c-0.1-0.1-0.1-0.3,0-0.5l0.1-0.1l0.1-0.1L59,74L59,74l0.1-0.1l0-0.1c0.1-0.1,0.3-0.2,0.4,0c0.1,0.1,0.1,0.3,0,0.4l-0.1,0.1
		l-0.1,0.1l-0.1,0.1l-0.1,0.1L59.2,74.7L59.2,74.7z M60.8,72.7c-0.1,0.1-0.3,0.2-0.4,0.1c-0.1-0.1-0.2-0.3-0.1-0.4l0,0l0.1-0.1
		l0-0.1l0.1-0.1l0.1-0.1l0-0.1l0,0c0.1-0.2,0.3-0.2,0.4-0.1c0.1,0.1,0.2,0.3,0.1,0.4l0,0l0,0.1L61,72.4l-0.1,0.1l-0.1,0.1L60.8,72.7
		L60.8,72.7z M62,70.5c-0.1,0.2-0.3,0.2-0.4,0.1c-0.2-0.1-0.2-0.3-0.1-0.4v0l0-0.1l0-0.1l0-0.1l0-0.1l0-0.1l0-0.1
		c0.1-0.2,0.3-0.2,0.4-0.1c0.1,0.1,0.2,0.3,0.1,0.4l0,0.1l0,0.1l0,0.1l0,0.1l0,0.1L62,70.5L62,70.5z M63,68.1
		c-0.1,0.2-0.2,0.3-0.4,0.2c-0.2-0.1-0.3-0.2-0.2-0.4l0-0.1l0-0.1l0-0.1l0-0.1l0-0.1l0-0.1c0-0.2,0.2-0.3,0.4-0.2
		c0.2,0.1,0.3,0.2,0.2,0.4l0,0.1l0,0.1l0,0.1l0,0.1L63,68.1L63,68.1z M63.6,65.6c0,0.2-0.2,0.3-0.3,0.3c-0.2,0-0.3-0.2-0.2-0.4
		l0-0.1l0-0.1l0-0.1l0-0.1l0-0.1l0-0.1l0,0c0-0.2,0.2-0.3,0.3-0.3c0.2,0,0.3,0.2,0.3,0.4l0,0l0,0.1l0,0.1l0,0.1l0,0.1L63.6,65.6
		L63.6,65.6z M63.9,63.1c0,0.2-0.2,0.3-0.3,0.3c-0.2,0-0.3-0.2-0.3-0.3l0-0.1v-0.1v-0.1v-0.1v-0.1l0-0.1c0-0.2,0.1-0.3,0.3-0.3
		c0.2,0,0.3,0.1,0.3,0.3v0.1v0.1l0,0.1v0.1V63.1L63.9,63.1z M63.9,60.5c0,0.2-0.1,0.3-0.3,0.3c-0.2,0-0.3-0.1-0.3-0.3l0,0v-0.1
		l0-0.1l0-0.1v-0.1l0-0.1v0c0-0.2,0.1-0.3,0.3-0.4c0.2,0,0.3,0.1,0.3,0.3l0,0l0,0.1v0.1l0,0.1l0,0.1L63.9,60.5L63.9,60.5z
		 M63.5,57.9c0,0.2-0.1,0.3-0.2,0.4c-0.2,0-0.3-0.1-0.4-0.2v0l0-0.1l0-0.1l0-0.1l0-0.1l0-0.1v0c0-0.2,0-0.3,0.2-0.4
		c0.2,0,0.3,0,0.4,0.2v0l0,0.1l0,0.1l0,0.1l0,0.1L63.5,57.9L63.5,57.9z M62.8,55.5c0,0.2,0,0.3-0.2,0.4c-0.2,0.1-0.3,0-0.4-0.2l0,0
		l0-0.1l0-0.1l0-0.1l0-0.1l0-0.1l0,0c-0.1-0.2,0-0.3,0.2-0.4c0.2-0.1,0.3,0,0.4,0.2l0,0l0,0.1l0,0.1l0,0.1l0,0.1L62.8,55.5
		L62.8,55.5z M61.7,53.1c0.1,0.2,0,0.3-0.1,0.4c-0.1,0.1-0.3,0-0.4-0.1l0-0.1l0-0.1l0-0.1L61,53.1l0-0.1l0-0.1h0
		c-0.1-0.2,0-0.3,0.1-0.4c0.1-0.1,0.3,0,0.4,0.1l0,0l0.1,0.1l0,0.1l0.1,0.1l0,0.1L61.7,53.1L61.7,53.1z M60.4,51
		c0.1,0.1,0.1,0.3-0.1,0.4c-0.1,0.1-0.3,0.1-0.4,0l0-0.1l-0.1-0.1l-0.1-0.1L59.7,51l-0.1-0.1l-0.1-0.1l0,0c-0.1-0.1-0.1-0.3,0-0.5
		c0.1-0.1,0.3-0.1,0.4,0h0l0.1,0.1l0.1,0.1l0.1,0.1l0.1,0.1L60.4,51L60.4,51z M58.8,49c0.1,0.1,0.1,0.3,0,0.4
		c-0.1,0.1-0.3,0.1-0.4,0l0,0l-0.1-0.1l-0.1-0.1l-0.1-0.1L58,49.1L57.9,49l0,0c-0.1-0.1-0.1-0.3,0-0.4c0.1-0.1,0.3-0.1,0.4,0l0,0
		l0.1,0.1l0.1,0.1l0.1,0.1l0.1,0.1L58.8,49L58.8,49z M56.9,47.3c0.1,0.1,0.2,0.3,0.1,0.4c-0.1,0.1-0.3,0.2-0.4,0.1l0,0l-0.1-0.1
		l-0.1-0.1l-0.1-0.1l-0.1-0.1l-0.1-0.1l0,0c-0.1-0.1-0.2-0.3-0.1-0.4c0.1-0.1,0.3-0.2,0.4-0.1l0,0l0.1,0.1l0.1,0.1l0.1,0.1
		L56.9,47.3L56.9,47.3L56.9,47.3z M54.9,45.9c0.2,0.1,0.2,0.3,0.1,0.4c-0.1,0.1-0.3,0.2-0.4,0.1l-0.1,0l-0.1,0l-0.1,0l-0.1-0.1
		l-0.1,0l-0.1,0c-0.2-0.1-0.2-0.3-0.1-0.4c0.1-0.2,0.3-0.2,0.4-0.1l0.1,0l0.1,0.1l0.1,0l0.1,0L54.9,45.9L54.9,45.9z M52.6,44.9
		c0.2,0.1,0.2,0.2,0.2,0.4c0,0.2-0.2,0.2-0.4,0.2l0,0l-0.1,0l-0.1,0l-0.1,0l-0.1,0l-0.1,0l0,0c-0.2,0-0.2-0.2-0.2-0.4
		c0.1-0.2,0.2-0.3,0.4-0.2l0,0l0.1,0l0.1,0l0.1,0l0.1,0L52.6,44.9L52.6,44.9z M50.3,44.1c0.2,0,0.3,0.2,0.2,0.4
		c0,0.2-0.2,0.3-0.4,0.2l0,0l-0.1,0l-0.1,0l-0.1,0l-0.1,0l-0.1,0l0,0c-0.2,0-0.3-0.2-0.2-0.4c0-0.2,0.2-0.3,0.3-0.3l0.1,0l0.1,0
		l0.1,0l0.1,0l0.1,0L50.3,44.1L50.3,44.1z M47.9,43.7c0.2,0,0.3,0.2,0.3,0.3c0,0.2-0.2,0.3-0.3,0.3h0l-0.1,0h-0.1l-0.1,0h-0.1h-0.1
		h0c-0.2,0-0.3-0.2-0.3-0.3c0-0.2,0.1-0.3,0.3-0.3h0l0.1,0h0.1l0.1,0h0.1L47.9,43.7L47.9,43.7z M45.4,43.7c0.2,0,0.3,0.1,0.3,0.3
		c0,0.2-0.1,0.3-0.3,0.3h-0.1h-0.1l-0.1,0h-0.1l-0.1,0l-0.1,0c-0.2,0-0.3-0.1-0.3-0.3c0-0.2,0.1-0.3,0.3-0.3l0.1,0l0.1,0h0.1l0.1,0
		L45.4,43.7L45.4,43.7z M46.3,32.9c0,0-0.1,0-0.2,0c0,0,0-0.1,0-0.2h0l0,0v0l0,0h0l0,0l0,0l0,0l0,0h0l0,0l0,0h0l0,0l0,0
		c0,0,0.1,0,0.2,0c0,0.1,0,0.1,0,0.2l0,0h0l0,0l0,0h0v0l0,0L46.3,32.9L46.3,32.9L46.3,32.9L46.3,32.9L46.3,32.9L46.3,32.9L46.3,32.9
		L46.3,32.9z M45.9,33c0,0,0.1-0.1,0.1,0c0,0,0.1,0.1,0,0.2l0,0v0l0,0l0,0v0h0l0,0v0l0,0l0,0v0l0,0l0,0c0,0.1-0.1,0.1-0.2,0
		c0,0-0.1-0.1,0-0.2v0l0,0v0l0,0l0,0L45.9,33L45.9,33L45.9,33L45.9,33L45.9,33L45.9,33L45.9,33L45.9,33z M45.5,33.6
		c0,0,0.1-0.1,0.2,0c0,0,0.1,0.1,0,0.2l0,0l0,0v0l0,0v0l0,0v0l0,0v0l0,0v0v0l0,0v0c0,0.1-0.1,0.1-0.1,0.1c-0.1,0-0.1-0.1-0.1-0.2
		l0,0l0,0v0l0,0v0l0,0v0L45.5,33.6L45.5,33.6L45.5,33.6L45.5,33.6L45.5,33.6L45.5,33.6L45.5,33.6z M45.2,34.3c0-0.1,0.1-0.1,0.1-0.1
		c0,0,0.1,0.1,0.1,0.1h0v0v0v0l0,0v0v0v0v0l0,0v0v0v0l0,0c0,0.1-0.1,0.1-0.1,0.1c-0.1,0-0.1-0.1-0.1-0.1l0,0v0l0,0v0v0v0v0l0,0
		L45.2,34.3L45.2,34.3L45.2,34.3L45.2,34.3L45.2,34.3L45.2,34.3z M45.2,35c0-0.1,0-0.1,0.1-0.1c0,0,0.1,0,0.1,0.1l0,0v0v0v0v0v0v0v0
		l0,0v0v0v0v0v0c0,0.1,0,0.1-0.1,0.1c-0.1,0-0.1,0-0.1-0.1v0v0v0v0v0v0v0V35L45.2,35L45.2,35L45.2,35L45.2,35L45.2,35L45.2,35z
		 M45.2,35.7c0-0.1,0-0.1,0.1-0.1c0.1,0,0.1,0,0.1,0.1l0,0v0v0v0l0,0v0v0v0l0,0v0v0l0,0v0l0,0c0,0.1,0,0.1-0.1,0.1
		c0,0-0.1,0-0.1-0.1l0,0l0,0v0v0l0,0v0v0l0,0L45.2,35.7L45.2,35.7L45.2,35.7L45.2,35.7L45.2,35.7L45.2,35.7z M45.4,36.4
		c0,0,0-0.1,0-0.1c0.1,0,0.1,0,0.2,0l0,0v0l0,0v0l0,0v0l0,0v0l0,0v0l0,0v0l0,0c0,0.1,0,0.1,0,0.2c0,0-0.1,0-0.1,0l0,0v0l0,0v0l0,0v0
		L45.4,36.4L45.4,36.4L45.4,36.4L45.4,36.4L45.4,36.4L45.4,36.4L45.4,36.4z M45.8,37c0,0,0-0.1,0-0.2c0,0,0.1,0,0.2,0l0,0v0l0,0l0,0
		l0,0v0h0l0,0v0l0,0l0,0l0,0l0,0c0,0,0,0.1,0,0.2c0,0-0.1,0-0.2,0l0,0l0,0l0,0l0,0l0,0L45.8,37L45.8,37L45.8,37L45.8,37L45.8,37
		L45.8,37L45.8,37L45.8,37z M46.3,37.5c0,0,0-0.1,0-0.2c0,0,0.1-0.1,0.2,0l0,0l0,0l0,0l0,0l0,0h0l0,0h0l0,0l0,0l0,0l0,0l0,0h0
		c0,0,0.1,0.1,0,0.2c0,0-0.1,0.1-0.2,0l0,0l0,0h0l0,0l0,0l0,0L46.3,37.5L46.3,37.5L46.3,37.5L46.3,37.5L46.3,37.5L46.3,37.5
		L46.3,37.5L46.3,37.5z M46.9,37.9c0,0-0.1-0.1,0-0.2c0-0.1,0.1-0.1,0.1-0.1l0,0l0,0h0l0,0h0l0,0h0h0l0,0h0l0,0h0h0v0
		c0.1,0,0.1,0.1,0.1,0.1c0,0.1-0.1,0.1-0.1,0.1h0h0l0,0h0l0,0h0h0L46.9,37.9L46.9,37.9L46.9,37.9L46.9,37.9L46.9,37.9L46.9,37.9
		L46.9,37.9z M47.5,38.1c-0.1,0-0.1-0.1-0.1-0.1c0-0.1,0.1-0.1,0.1-0.1h0h0l0,0h0h0h0h0h0l0,0h0h0h0h0l0,0c0.1,0,0.1,0.1,0.1,0.1
		c0,0.1,0,0.1-0.1,0.1h0h0l0,0h0h0h0h0L47.5,38.1L47.5,38.1L47.5,38.1L47.5,38.1L47.5,38.1L47.5,38.1L47.5,38.1z M48.2,38.1
		c-0.1,0-0.1,0-0.1-0.1c0-0.1,0-0.1,0.1-0.1h0h0h0h0h0h0h0h0h0l0,0h0h0h0c0.1,0,0.1,0,0.1,0.1c0,0.1,0,0.1-0.1,0.1h0h0h0h0h0h0
		L48.2,38.1L48.2,38.1L48.2,38.1L48.2,38.1L48.2,38.1L48.2,38.1L48.2,38.1z M48.9,38c-0.1,0-0.1,0-0.1-0.1c0-0.1,0-0.1,0.1-0.1l0,0
		h0h0h0l0,0h0h0l0,0h0h0l0,0h0l0,0l0,0c0.1,0,0.1,0,0.1,0.1c0,0,0,0.1-0.1,0.1l0,0l0,0h0h0l0,0h0h0L48.9,38L48.9,38L48.9,38L48.9,38
		L48.9,38L48.9,38L48.9,38z M49.5,37.8c0,0-0.1,0-0.1,0c0-0.1,0-0.1,0-0.2l0,0h0l0,0h0l0,0l0,0h0v0h0l0,0l0,0h0l0,0c0,0,0.1,0,0.1,0
		c0,0.1,0,0.1,0,0.2v0l0,0h0l0,0l0,0h0L49.5,37.8L49.5,37.8L49.5,37.8L49.5,37.8L49.5,37.8L49.5,37.8L49.5,37.8z M50.1,37.3
		c0,0-0.1,0-0.2,0c0,0,0-0.1,0-0.2l0,0l0,0v0h0l0,0l0,0l0,0v0l0,0h0l0,0l0,0v0l0.2,0.2l0,0v0l0,0l0,0l0,0L50.1,37.3L50.1,37.3
		L50.1,37.3L50.1,37.3L50.1,37.3L50.1,37.3L50.1,37.3L50.1,37.3L50.1,37.3z M50.1,37l0.2,0.2c0,0,0-0.1,0-0.2
		C50.2,37,50.1,37,50.1,37L50.1,37z M50.5,36.8c0,0-0.1,0.1-0.1,0c0,0-0.1-0.1,0-0.2l0,0l0,0v0l0,0v0h0l0,0v0l0,0v0l0,0v0l0,0v0
		c0,0,0.1-0.1,0.2,0c0,0,0.1,0.1,0,0.2l0,0l0,0v0l0,0v0l0,0l0,0L50.5,36.8L50.5,36.8L50.5,36.8L50.5,36.8L50.5,36.8L50.5,36.8
		L50.5,36.8z M50.8,36.2c0,0.1-0.1,0.1-0.1,0.1c-0.1,0-0.1-0.1-0.1-0.1v0v0l0,0v0v0l0,0v0v0l0,0v0v0l0,0v0c0-0.1,0.1-0.1,0.1-0.1
		c0.1,0,0.1,0.1,0.1,0.1v0v0l0,0v0v0l0,0L50.8,36.2L50.8,36.2L50.8,36.2L50.8,36.2L50.8,36.2L50.8,36.2L50.8,36.2z M51,35.5
		c0,0.1-0.1,0.1-0.1,0.1c0,0-0.1-0.1-0.1-0.1h0v0v0v0v0v0v0v0v0v0l0,0v0v0v0c0-0.1,0-0.1,0.1-0.1c0.1,0,0.1,0.1,0.1,0.1v0v0l0,0v0v0
		v0v0L51,35.5L51,35.5L51,35.5L51,35.5L51,35.5L51,35.5L51,35.5z M51,34.8c0,0.1,0,0.1-0.1,0.1c-0.1,0-0.1,0-0.1-0.1v0v0v0v0v0v0
		l0,0v0v0v0v0v0l0,0l0,0c0-0.1,0-0.1,0.1-0.1c0.1,0,0.1,0,0.1,0.1l0,0v0l0,0v0v0v0v0v0L51,34.8L51,34.8L51,34.8L51,34.8L51,34.8
		L51,34.8z M50.9,34c0,0.1,0,0.1-0.1,0.2c-0.1,0-0.1,0-0.1-0.1l0,0l0,0v0v0l0,0v0v0l0,0v0l0,0v0v0l0,0l0,0c0-0.1,0-0.1,0.1-0.2
		c0,0,0.1,0,0.1,0.1l0,0v0l0,0v0l0,0v0v0L50.9,34L50.9,34L50.9,34L50.9,34L50.9,34L50.9,34L50.9,34z M50.6,33.4c0,0.1,0,0.1,0,0.2
		c0,0-0.1,0-0.1,0l0,0v0l0,0l0,0v0l0,0l0,0l0,0l0,0v0l0,0l0,0v0c0,0,0-0.1,0-0.2c0,0,0.1,0,0.2,0l0,0l0,0l0,0l0,0v0l0,0L50.6,33.4
		L50.6,33.4L50.6,33.4L50.6,33.4L50.6,33.4L50.6,33.4L50.6,33.4z M50.1,32.9c0,0,0,0.1,0,0.2c0,0-0.1,0-0.1,0h0l0,0v0l0,0h0l0,0l0,0
		v0h0l0,0l0,0l0,0l0,0c0,0-0.1-0.1,0-0.2c0,0,0.1,0,0.2,0l0,0l0,0l0,0l0,0h0L50.1,32.9L50.1,32.9L50.1,32.9L50.1,32.9L50.1,32.9
		L50.1,32.9L50.1,32.9L50.1,32.9z M49.6,32.4c0,0,0.1,0.1,0,0.2c0,0-0.1,0.1-0.2,0l0,0h0l0,0h0l0,0h0l0,0l0,0l0,0l0,0h0l0,0h0h0
		c0,0-0.1-0.1,0-0.2c0-0.1,0.1-0.1,0.2-0.1v0h0l0,0h0l0,0l0,0L49.6,32.4L49.6,32.4L49.6,32.4L49.6,32.4L49.6,32.4L49.6,32.4
		L49.6,32.4L49.6,32.4z M49,32.1c0.1,0,0.1,0.1,0.1,0.1c0,0.1-0.1,0.1-0.1,0.1h0l0,0h0h0l0,0h0h0l0,0h0h0h0l0,0h0l0,0
		c-0.1,0-0.1-0.1-0.1-0.1c0-0.1,0.1-0.1,0.1-0.1l0,0h0h0l0,0h0h0l0,0L49,32.1L49,32.1L49,32.1L49,32.1L49,32.1L49,32.1L49,32.1z
		 M48.3,32c0,0,0.1,0.1,0.1,0.1c0,0.1-0.1,0.1-0.1,0.1l0,0h0h0l0,0h0h0h0h0h0h0h0h0h0h0c-0.1,0-0.1,0-0.1-0.1c0-0.1,0-0.1,0.1-0.1h0
		h0h0h0h0h0h0H48.3L48.3,32L48.3,32L48.3,32L48.3,32L48.3,32L48.3,32z M47.6,32c0.1,0,0.1,0,0.1,0.1c0,0.1,0,0.1-0.1,0.1h0h0l0,0h0
		h0h0h0l0,0h0h0h0l0,0h0h0c0,0-0.1,0-0.1-0.1c0,0,0-0.1,0.1-0.1h0l0,0h0h0h0l0,0h0L47.6,32L47.6,32L47.6,32L47.6,32L47.6,32L47.6,32
		L47.6,32z M47,32.2c0,0,0.1,0,0.1,0.1c0,0.1,0,0.1-0.1,0.1v0h0h0l0,0h0l0,0h0l0,0h0l0,0h0l0,0h0l0,0c-0.1,0-0.1,0-0.1,0
		c0-0.1,0-0.1,0-0.2l0,0l0,0h0l0,0h0l0,0h0L47,32.2L47,32.2L47,32.2L47,32.2L47,32.2L47,32.2L47,32.2z M58,25.7c-0.1,0-0.2,0-0.2,0
		c-0.1-0.1,0-0.2,0-0.2l0,0l0,0l0,0l0,0l0,0l0,0l0,0l0,0l0,0l0,0l0,0l0,0l0,0l0,0l0,0c0.1,0,0.2,0,0.2,0c0.1,0.1,0,0.2,0,0.2l0,0
		l0,0l0,0l0,0l0,0l0,0l0,0l0,0l0,0L58,25.7L58,25.7L58,25.7L58,25.7L58,25.7L58,25.7z M57.3,25.9c0.1-0.1,0.2-0.1,0.2,0
		c0.1,0,0.1,0.2,0,0.2l0,0l0,0l0,0l0,0l0,0l0,0l0,0l0,0l0,0l0,0v0l0,0l0,0c0,0.1-0.1,0.1-0.2,0c-0.1-0.1-0.1-0.2,0-0.2l0,0l0,0l0,0
		l0,0l0,0l0,0l0,0L57.3,25.9L57.3,25.9L57.3,25.9L57.3,25.9L57.3,25.9L57.3,25.9z M56.8,26.7c0-0.1,0.1-0.1,0.2-0.1
		c0.1,0,0.1,0.1,0.1,0.2h0v0l0,0l0,0v0l0,0v0l0,0l0,0v0l0,0v0l0,0v0c0,0.1-0.1,0.1-0.2,0.1c-0.1,0-0.1-0.1-0.1-0.2v0l0,0v0l0,0l0,0
		v0l0,0l0,0L56.8,26.7L56.8,26.7L56.8,26.7L56.8,26.7L56.8,26.7L56.8,26.7z M56.5,27.6c0-0.1,0.1-0.1,0.2-0.1c0.1,0,0.1,0.1,0.1,0.2
		v0l0,0v0v0l0,0v0v0l0,0v0v0v0l0,0v0l0,0c0,0.1-0.1,0.2-0.2,0.1c-0.1,0-0.1-0.1-0.1-0.2l0,0v0v0l0,0v0v0l0,0v0v0L56.5,27.6
		L56.5,27.6L56.5,27.6L56.5,27.6L56.5,27.6z M56.3,28.6c0-0.1,0.1-0.2,0.2-0.2c0.1,0,0.2,0.1,0.2,0.2l0,0v0v0v0v0v0v0v0v0v0v0v0v0v0
		c0,0.1-0.1,0.2-0.1,0.2c-0.1,0-0.2-0.1-0.2-0.2v0v0v0l0,0v0v0v0v0v0V28.6L56.3,28.6L56.3,28.6L56.3,28.6L56.3,28.6z M56.4,29.6
		c0-0.1,0-0.2,0.1-0.2c0.1,0,0.2,0,0.2,0.1l0,0v0v0l0,0v0v0l0,0v0v0l0,0v0l0,0v0l0,0c0,0.1,0,0.2-0.1,0.2c-0.1,0-0.2,0-0.2-0.1l0,0
		v0v0l0,0v0l0,0v0l0,0v0L56.4,29.6L56.4,29.6L56.4,29.6L56.4,29.6L56.4,29.6z M56.8,30.6c0-0.1,0-0.2,0.1-0.2c0.1,0,0.2,0,0.2,0.1v0
		l0,0v0l0,0l0,0v0l0,0l0,0l0,0v0l0,0l0,0l0,0c0,0.1,0,0.2-0.1,0.2c-0.1,0-0.2,0-0.2-0.1l0,0l0,0l0,0v0l0,0l0,0l0,0v0L56.8,30.6
		L56.8,30.6L56.8,30.6L56.8,30.6L56.8,30.6z M57.3,31.4c-0.1-0.1,0-0.2,0-0.2c0.1-0.1,0.2,0,0.2,0v0l0,0l0,0l0,0l0,0l0,0l0,0l0,0
		l0,0l0,0l0,0l0,0v0c0.1,0.1,0.1,0.2,0,0.2c-0.1,0.1-0.2,0.1-0.2,0v0l0,0l0,0l0,0l0,0l0,0l0,0L57.3,31.4L57.3,31.4L57.3,31.4
		L57.3,31.4L57.3,31.4L57.3,31.4z M57.9,32.1c-0.1,0-0.1-0.2,0-0.2c0-0.1,0.2-0.1,0.2,0l0,0l0,0l0,0l0,0l0,0l0,0l0,0l0,0l0,0h0l0,0
		l0,0l0,0h0c0.1,0,0.1,0.2,0,0.2c0,0.1-0.1,0.1-0.2,0v0l0,0l0,0l0,0l0,0l0,0l0,0L57.9,32.1L57.9,32.1L57.9,32.1L57.9,32.1L57.9,32.1
		L57.9,32.1L57.9,32.1z M58.8,32.6c-0.1,0-0.1-0.1-0.1-0.2c0-0.1,0.1-0.1,0.2-0.1l0,0l0,0l0,0h0l0,0h0l0,0l0,0h0l0,0h0l0,0h0l0,0
		c0.1,0,0.1,0.1,0.1,0.2c0,0.1-0.1,0.1-0.2,0.1l0,0h0l0,0h0l0,0h0l0,0l0,0L58.8,32.6L58.8,32.6L58.8,32.6L58.8,32.6L58.8,32.6
		L58.8,32.6z M59.7,32.9c-0.1,0-0.1-0.1-0.1-0.2c0-0.1,0.1-0.1,0.2-0.1h0h0l0,0h0h0h0l0,0h0h0h0l0,0h0h0l0,0c0.1,0,0.1,0.1,0.1,0.2
		c0,0.1-0.1,0.2-0.2,0.1l0,0h0h0h0l0,0h0h0h0l0,0L59.7,32.9L59.7,32.9L59.7,32.9L59.7,32.9L59.7,32.9z M60.6,33
		c-0.1,0-0.1-0.1-0.2-0.2c0-0.1,0.1-0.2,0.2-0.2h0h0h0h0h0h0h0h0l0,0h0h0h0h0c0.1,0,0.2,0,0.2,0.1c0,0.1,0,0.2-0.1,0.2h0h0l0,0h0h0
		h0h0h0L60.6,33L60.6,33L60.6,33L60.6,33L60.6,33z M61.6,32.9c-0.1,0-0.2,0-0.2-0.1c0-0.1,0-0.2,0.1-0.2l0,0h0l0,0h0l0,0h0l0,0h0
		l0,0h0l0,0h0l0,0l0,0c0.1,0,0.2,0,0.2,0.1c0,0.1,0,0.2-0.1,0.2l0,0l0,0l0,0h0l0,0h0l0,0h0l0,0L61.6,32.9L61.6,32.9L61.6,32.9
		L61.6,32.9L61.6,32.9z M62.4,32.5c-0.1,0-0.2,0-0.2-0.1c0-0.1,0-0.2,0-0.2l0,0l0,0h0l0,0l0,0l0,0l0,0h0l0,0l0,0l0,0l0,0h0
		c0.1-0.1,0.2,0,0.2,0c0,0.1,0,0.2,0,0.2h0l0,0l0,0l0,0l0,0l0,0l0,0L62.4,32.5L62.4,32.5L62.4,32.5L62.4,32.5L62.4,32.5L62.4,32.5z
		 M63.2,31.9c-0.1,0.1-0.2,0.1-0.2,0c-0.1-0.1,0-0.2,0-0.2l0,0l0,0l0,0l0,0l0,0l0,0l0,0l0,0l0,0l0,0l0,0l0,0l0,0l0.2,0.2l0,0l0,0
		l0,0l0,0l0,0l0,0l0,0L63.2,31.9L63.2,31.9L63.2,31.9L63.2,31.9L63.2,31.9L63.2,31.9L63.2,31.9z M63.2,31.4l0.2,0.2
		c0.1-0.1,0.1-0.2,0-0.2C63.4,31.4,63.3,31.4,63.2,31.4L63.2,31.4z M63.8,31.1c0,0.1-0.1,0.1-0.2,0c-0.1,0-0.1-0.1,0-0.2l0,0l0,0
		l0,0l0,0l0,0l0,0v0l0,0l0,0l0,0v0l0,0l0,0v0c0-0.1,0.1-0.1,0.2,0c0.1,0,0.1,0.1,0.1,0.2l0,0l0,0l0,0l0,0l0,0v0l0,0l0,0L63.8,31.1
		L63.8,31.1L63.8,31.1L63.8,31.1L63.8,31.1L63.8,31.1z M64.3,30.2c0,0.1-0.1,0.1-0.2,0.1c-0.1,0-0.1-0.1-0.1-0.2l0,0v0l0,0v0l0,0v0
		l0,0v0l0,0v0v0l0,0v0c0-0.1,0.1-0.1,0.2-0.1c0.1,0,0.1,0.1,0.1,0.2l0,0v0v0l0,0v0l0,0v0l0,0L64.3,30.2L64.3,30.2L64.3,30.2
		L64.3,30.2L64.3,30.2z M64.5,29.3c0,0.1-0.1,0.1-0.2,0.1c-0.1,0-0.1-0.1-0.1-0.2v0v0l0,0v0v0v0v0v0v0l0,0v0v0v0v0
		c0-0.1,0.1-0.2,0.2-0.1c0.1,0,0.2,0.1,0.1,0.2l0,0v0v0v0v0v0l0,0v0v0L64.5,29.3L64.5,29.3L64.5,29.3L64.5,29.3L64.5,29.3z
		 M64.5,28.3c0,0.1-0.1,0.2-0.1,0.2c-0.1,0-0.2,0-0.2-0.1v0v0v0v0l0,0v0v0v0v0l0,0v0v0v0l0,0c0-0.1,0-0.2,0.1-0.2
		c0.1,0,0.2,0,0.2,0.1l0,0v0v0l0,0v0v0v0v0l0,0L64.5,28.3L64.5,28.3L64.5,28.3L64.5,28.3L64.5,28.3z M64.3,27.3c0,0.1,0,0.2-0.1,0.2
		c-0.1,0-0.2,0-0.2-0.1v0v0l0,0v0l0,0v0l0,0v0l0,0v0l0,0l0,0v0v0c0-0.1,0-0.2,0.1-0.2c0.1,0,0.2,0,0.2,0.1l0,0v0l0,0l0,0v0l0,0v0
		l0,0v0L64.3,27.3L64.3,27.3L64.3,27.3L64.3,27.3L64.3,27.3z M63.9,26.4c0,0.1,0,0.2,0,0.2c-0.1,0-0.2,0-0.2,0v0l0,0l0,0l0,0l0,0
		l0,0v0l0,0l0,0l0,0l0,0l0,0v0c0-0.1,0-0.2,0-0.2c0.1,0,0.2,0,0.2,0l0,0l0,0l0,0l0,0l0,0l0,0v0l0,0L63.9,26.4L63.9,26.4L63.9,26.4
		L63.9,26.4L63.9,26.4z M63.3,25.6c0.1,0.1,0.1,0.2,0,0.2c-0.1,0.1-0.2,0.1-0.2,0v0l0,0l0,0l0,0l0,0l0,0l0,0l0,0l0,0l0,0l0,0l0,0
		l0,0c-0.1,0-0.1-0.2,0-0.2c0.1-0.1,0.2-0.1,0.2,0l0,0l0,0l0,0l0,0l0,0l0,0l0,0L63.3,25.6L63.3,25.6L63.3,25.6L63.3,25.6L63.3,25.6
		L63.3,25.6z M62.6,25c0.1,0,0.1,0.1,0.1,0.2c0,0.1-0.1,0.1-0.2,0.1l0,0l0,0l0,0l0,0l0,0h0l0,0l0,0l0,0h0l0,0l0,0l0,0h0
		c-0.1,0-0.1-0.1-0.1-0.2c0-0.1,0.1-0.1,0.2-0.1l0,0l0,0l0,0l0,0h0l0,0l0,0l0,0L62.6,25L62.6,25L62.6,25L62.6,25L62.6,25L62.6,25z
		 M61.7,24.6c0.1,0,0.1,0.1,0.1,0.2c0,0.1-0.1,0.1-0.2,0.1h0l0,0h0l0,0h0h0l0,0h0l0,0h0h0l0,0h0l0,0c-0.1,0-0.1-0.1-0.1-0.2
		c0-0.1,0.1-0.1,0.2-0.1l0,0h0l0,0h0l0,0h0h0l0,0h0L61.7,24.6L61.7,24.6L61.7,24.6L61.7,24.6L61.7,24.6z M60.8,24.4
		c0.1,0,0.2,0.1,0.1,0.2c0,0.1-0.1,0.2-0.2,0.2h0h0h0l0,0h0h0h0h0h0h0h0h0h0h0c-0.1,0-0.2-0.1-0.2-0.2c0-0.1,0.1-0.2,0.2-0.2h0h0h0
		h0h0h0h0h0H60.8L60.8,24.4L60.8,24.4L60.8,24.4L60.8,24.4L60.8,24.4z M59.8,24.4c0.1,0,0.2,0,0.2,0.1c0,0.1,0,0.2-0.1,0.2h0h0h0
		l0,0h0h0l0,0h0h0h0l0,0h0h0v0c-0.1,0-0.2,0-0.2-0.1c0-0.1,0-0.2,0.1-0.2h0l0,0h0l0,0h0h0l0,0h0h0L59.8,24.4L59.8,24.4L59.8,24.4
		L59.8,24.4L59.8,24.4z M58.9,24.7c0.1,0,0.2,0,0.2,0.1c0,0.1,0,0.2-0.1,0.2v0h0l0,0h0l0,0l0,0h0l0,0l0,0h0l0,0l0,0h0v0
		c-0.1,0-0.2,0-0.2-0.1c0-0.1,0-0.2,0.1-0.2h0l0,0h0l0,0l0,0l0,0h0l0,0l0,0L58.9,24.7L58.9,24.7L58.9,24.7L58.9,24.7L58.9,24.7z
		 M59.8,27.9c0.4-0.3,1-0.3,1.4,0.1c0.3,0.4,0.3,1.1-0.1,1.4c-0.4,0.4-1,0.3-1.3-0.1C59.4,28.9,59.4,28.3,59.8,27.9L59.8,27.9z
		 M55.1,29.6c0.1,0.4,0.2,0.7,0.3,1.1c0.1,0.4,0.3,0.7,0.5,1c0.1,0.1,0,0.2,0,0.3l0,0l-1.3,1.7l2.4,2.1l1.3-1.7
		c0.1-0.1,0.2-0.1,0.3-0.1c0.2,0.1,0.3,0.1,0.5,0.2c0.2,0,0.3,0.1,0.5,0.1c0.2,0,0.4,0.1,0.5,0.1c0.2,0,0.4,0,0.5,0
		c0.1,0,0.2,0.1,0.2,0.2l0.7,2l2.9-1.1l-0.7-2c0-0.1,0-0.2,0.1-0.3c0.3-0.2,0.5-0.5,0.8-0.8c0.2-0.3,0.4-0.6,0.6-0.9
		c0-0.1,0.2-0.2,0.3-0.1l0,0l2,0.4l0.5-3.2L66,28c-0.1,0-0.2-0.1-0.2-0.2c-0.1-0.4-0.2-0.7-0.3-1.1c-0.1-0.4-0.3-0.7-0.5-1
		c-0.1-0.1,0-0.2,0-0.3l0,0l1.3-1.7L64,21.7l-1.3,1.7c-0.1,0.1-0.2,0.1-0.3,0.1c-0.2-0.1-0.3-0.1-0.5-0.2c-0.2,0-0.3-0.1-0.5-0.1
		c-0.2,0-0.4,0-0.5-0.1c-0.2,0-0.4,0-0.6,0C60.1,23,60,23,60,22.8l-0.7-2L56.4,22l0.7,2c0,0.1,0,0.2-0.1,0.3
		c-0.3,0.2-0.5,0.5-0.8,0.8c-0.2,0.3-0.4,0.6-0.6,0.9c0,0.1-0.2,0.2-0.3,0.1l-2-0.4L52.9,29l2,0.4C55,29.4,55.1,29.5,55.1,29.6
		L55.1,29.6z M55,30.8c-0.1-0.3-0.2-0.7-0.3-1l-2.1-0.4c-0.1,0-0.2-0.2-0.2-0.3l0.6-3.7c0-0.1,0.2-0.2,0.3-0.2l2.1,0.4
		c0.2-0.3,0.3-0.6,0.6-0.9c0.2-0.3,0.5-0.5,0.7-0.8l-0.7-2.1c0-0.1,0-0.3,0.1-0.3l3.3-1.3c0.1,0,0.3,0,0.3,0.1l0.7,2.1
		c0.1,0,0.3,0,0.4,0c0.2,0,0.4,0,0.6,0.1c0.2,0,0.4,0.1,0.6,0.1c0.1,0,0.3,0.1,0.4,0.1l1.4-1.7c0.1-0.1,0.2-0.1,0.3,0l2.7,2.4
		c0.1,0.1,0.1,0.3,0,0.4l-1.4,1.7c0.2,0.3,0.3,0.6,0.4,1c0.1,0.3,0.2,0.7,0.3,1l2.1,0.4c0.1,0,0.2,0.1,0.2,0.3l-0.6,3.7
		c0,0.1-0.2,0.2-0.3,0.2l-2.1-0.4c-0.2,0.3-0.4,0.6-0.6,0.9c-0.2,0.3-0.5,0.5-0.7,0.8l0.7,2.1c0,0.1,0,0.3-0.1,0.3l-3.3,1.3
		c-0.1,0-0.3,0-0.3-0.2l-0.7-2.1c-0.1,0-0.3,0-0.4,0c-0.2,0-0.4,0-0.6-0.1c-0.2,0-0.4-0.1-0.6-0.1c-0.1,0-0.3-0.1-0.4-0.1l-1.4,1.7
		c-0.1,0.1-0.2,0.1-0.3,0l-2.7-2.4c-0.1-0.1-0.1-0.2,0-0.3l1.4-1.7C55.2,31.5,55.1,31.2,55,30.8L55,30.8z M47.8,34.3
		c0.4-0.2,0.8,0,1,0.4c0.2,0.4,0,0.8-0.4,1c-0.4,0.2-0.8,0-1-0.4C47.3,35,47.4,34.5,47.8,34.3L47.8,34.3z M44.1,34.5
		c0,0.3,0,0.6,0,0.9c0,0.3,0.1,0.6,0.1,0.9c0,0.1,0,0.2-0.1,0.2l0,0l-1.3,0.9l1.3,2l1.3-0.9c0.1,0,0.2,0,0.2,0
		c0.1,0.1,0.2,0.2,0.3,0.3c0.1,0.1,0.2,0.1,0.4,0.2c0.1,0.1,0.3,0.1,0.4,0.2c0.1,0,0.3,0.1,0.4,0.1c0.1,0,0.1,0.1,0.1,0.2l0.1,1.6
		l2.3-0.2l-0.1-1.6c0-0.1,0-0.2,0.1-0.2c0.3-0.1,0.5-0.3,0.7-0.4c0.2-0.2,0.4-0.3,0.6-0.6c0.1,0,0.1-0.1,0.2,0l0,0l1.4,0.7l1-2.2
		l-1.4-0.7c-0.1,0-0.1-0.1-0.1-0.2c0-0.3,0-0.6,0-0.9c0-0.3-0.1-0.6-0.1-0.9c0-0.1,0-0.2,0.1-0.2l0,0l1.3-0.9l-1.3-2l-1.3,0.9
		c-0.1,0-0.2,0-0.2,0c-0.1-0.1-0.2-0.2-0.3-0.3c-0.1-0.1-0.2-0.1-0.4-0.2c-0.1-0.1-0.3-0.1-0.4-0.2c-0.1,0-0.3-0.1-0.4-0.1
		c-0.1,0-0.1-0.1-0.1-0.2l-0.1-1.6l-2.3,0.2l0.1,1.6c0,0.1,0,0.2-0.1,0.2c-0.3,0.1-0.5,0.2-0.7,0.4c-0.2,0.2-0.4,0.3-0.6,0.5
		c-0.1,0.1-0.1,0.1-0.2,0l-1.4-0.7l-1,2.2l1.4,0.7C44,34.3,44.1,34.4,44.1,34.5L44.1,34.5z M43.7,35.4c0-0.3,0-0.5,0-0.8l-1.4-0.7
		c-0.1,0-0.1-0.2-0.1-0.3l1.2-2.5c0-0.1,0.2-0.1,0.2-0.1l1.4,0.7c0.2-0.2,0.4-0.3,0.6-0.5c0.2-0.2,0.4-0.3,0.7-0.4l-0.1-1.7
		c0-0.1,0.1-0.2,0.2-0.2l2.7-0.2c0.1,0,0.2,0.1,0.2,0.2l0.1,1.7c0.1,0,0.2,0.1,0.3,0.1c0.1,0,0.3,0.1,0.4,0.2
		c0.1,0.1,0.3,0.1,0.4,0.2c0.1,0.1,0.2,0.1,0.3,0.2l1.3-0.9c0.1-0.1,0.2,0,0.3,0l1.5,2.3c0,0.1,0,0.2,0,0.3L52.4,34
		c0.1,0.3,0.1,0.5,0.1,0.8c0,0.3,0,0.5,0,0.8l1.4,0.7c0.1,0,0.1,0.2,0.1,0.3l-1.2,2.5c0,0.1-0.1,0.1-0.2,0.1l-1.4-0.8
		c-0.2,0.2-0.4,0.4-0.6,0.5c-0.2,0.2-0.4,0.3-0.7,0.4L50,41c0,0.1-0.1,0.2-0.2,0.2l-2.7,0.2c-0.1,0-0.2-0.1-0.2-0.2l-0.1-1.7
		c-0.1,0-0.2-0.1-0.3-0.1c-0.1,0-0.3-0.1-0.4-0.2c-0.1-0.1-0.3-0.1-0.4-0.2c-0.1-0.1-0.2-0.1-0.3-0.2l-1.3,0.9c-0.1,0.1-0.2,0-0.2,0
		l-1.5-2.3c-0.1-0.1,0-0.2,0-0.3l1.3-0.9C43.7,35.9,43.7,35.6,43.7,35.4L43.7,35.4z M52.8,20.6c0.1-0.1,0.2-0.1,0.3,0
		c0.1,0.1,0.1,0.2,0,0.3h0l0,0.1l0,0l0,0l0,0l0,0l0,0c-0.1,0.1-0.2,0.1-0.3,0c-0.1-0.1-0.1-0.2,0-0.3l0,0l0,0l0-0.1l0,0L52.8,20.6
		L52.8,20.6L52.8,20.6z M51.9,21.7c0.1-0.1,0.2-0.1,0.3,0c0.1,0.1,0.1,0.2,0,0.3l0,0l0,0l0,0.1l0,0l0,0.1l0,0c0,0.1-0.2,0.1-0.3,0
		c-0.1-0.1-0.1-0.2,0-0.3l0,0l0-0.1l0,0l0-0.1L51.9,21.7L51.9,21.7z M51,23c0-0.1,0.2-0.1,0.3-0.1c0.1,0,0.1,0.2,0.1,0.3l0,0l0,0
		l0,0.1l0,0.1l0,0.1l0,0l0,0c0,0.1-0.2,0.1-0.3,0.1c-0.1,0-0.1-0.2-0.1-0.3l0,0l0-0.1l0-0.1l0-0.1L51,23L51,23L51,23z M50.4,24.5
		c0-0.1,0.1-0.1,0.3-0.1c0.1,0,0.1,0.2,0.1,0.3v0l0,0.1l0,0.1l0,0l0,0.1l0,0.1l0,0c0,0.1-0.1,0.2-0.2,0.1c-0.1,0-0.2-0.2-0.1-0.3
		l0,0l0-0.1l0-0.1l0-0.1L50.4,24.5L50.4,24.5L50.4,24.5z M49.9,26c0-0.1,0.1-0.2,0.2-0.1c0.1,0,0.2,0.1,0.1,0.2l0,0l0,0.1l0,0.1
		l0,0.1v0.1l0,0.1v0c0,0.1-0.1,0.2-0.2,0.1c-0.1,0-0.2-0.1-0.1-0.2v0v-0.1l0-0.1l0-0.1l0-0.1L49.9,26L49.9,26z M49.7,27.6
		c0-0.1,0.1-0.2,0.2-0.2c0.1,0,0.2,0.1,0.2,0.2v0v0.1l0,0.1v0.1v0.1l0,0.1v0c0,0.1-0.1,0.2-0.2,0.2c-0.1,0-0.2-0.1-0.2-0.2v0v-0.1
		v-0.1l0-0.1L49.7,27.6L49.7,27.6L49.7,27.6z M49.6,29.2c0-0.1,0.1-0.2,0.2-0.2c0.1,0,0.2,0.1,0.2,0.2v0l0,0.1v0.1v0.1v0.1l0,0.1v0
		c0,0.1-0.1,0.2-0.2,0.2c-0.1,0-0.2-0.1-0.2-0.2v-0.1v-0.1l0-0.1v-0.1V29.2L49.6,29.2L49.6,29.2z M54.8,38.4c-0.1,0-0.1-0.2-0.1-0.3
		c0.1-0.1,0.2-0.1,0.3-0.1l0,0l0.1,0l0,0l0.1,0l0,0l0.1,0l0,0c0.1,0.1,0.1,0.2,0.1,0.3c0,0.1-0.2,0.1-0.3,0.1l0,0l-0.1,0l0,0l-0.1,0
		L54.8,38.4L54.8,38.4L54.8,38.4z M56.2,39.2c-0.1,0-0.1-0.2-0.1-0.3c0-0.1,0.1-0.1,0.2-0.1l0,0l0,0l0.1,0l0.1,0l0.1,0l0,0h0
		c0.1,0,0.1,0.2,0.1,0.3c0,0.1-0.2,0.2-0.3,0.1l0,0l-0.1,0l-0.1,0l-0.1,0L56.2,39.2L56.2,39.2L56.2,39.2z M57.6,39.7
		c-0.1,0-0.2-0.1-0.1-0.2c0-0.1,0.1-0.2,0.2-0.1l0,0l0.1,0l0,0l0.1,0l0.1,0l0.1,0h0c0.1,0,0.2,0.1,0.1,0.2c0,0.1-0.1,0.2-0.2,0.2
		l0,0l-0.1,0l-0.1,0l-0.1,0L57.6,39.7L57.6,39.7L57.6,39.7z M59.1,40c-0.1,0-0.2-0.1-0.2-0.2c0-0.1,0.1-0.2,0.2-0.2h0l0,0h0.1l0.1,0
		h0.1l0.1,0h0.1c0.1,0,0.2,0.1,0.2,0.2c0,0.1-0.1,0.2-0.2,0.2h0l-0.1,0h-0.1l-0.1,0L59.1,40L59.1,40L59.1,40z M60.6,40.1
		c-0.1,0-0.2-0.1-0.2-0.2c0-0.1,0.1-0.2,0.2-0.2h0h0.1h0.1h0.1h0.1l0.1,0l0,0c0.1,0,0.2,0.1,0.2,0.2c0,0.1-0.1,0.2-0.2,0.2h0h-0.1
		l-0.1,0h-0.1H60.6L60.6,40.1L60.6,40.1z M62.1,40c-0.1,0-0.2-0.1-0.2-0.2c0-0.1,0-0.2,0.2-0.2h0l0.1,0l0.1,0h0.1l0.1,0l0.1,0h0
		c0.1,0,0.2,0,0.2,0.2c0,0.1,0,0.2-0.2,0.2l0,0h-0.1l-0.1,0l-0.1,0L62.1,40L62.1,40L62.1,40z M63.6,39.6c-0.1,0-0.2,0-0.2-0.1
		c0-0.1,0-0.2,0.1-0.3l0,0l0.1,0l0.1,0l0.1,0l0.1,0l0.1,0l0,0c0.1,0,0.2,0,0.2,0.1c0,0.1,0,0.2-0.1,0.2l0,0l-0.1,0l-0.1,0l-0.1,0
		L63.6,39.6L63.6,39.6L63.6,39.6z M65,39c-0.1,0-0.2,0-0.3-0.1c0-0.1,0-0.2,0.1-0.3h0l0,0l0.1,0l0.1,0l0,0l0.1,0h0
		c0.1,0,0.2,0,0.3,0.1c0,0.1,0,0.2-0.1,0.3l0,0l-0.1,0l-0.1,0l-0.1,0L65,39L65,39L65,39z M66.3,38.3c-0.1,0.1-0.2,0-0.3-0.1
		c-0.1-0.1,0-0.2,0-0.3l0,0l0,0l0.1,0l0,0l0.1,0l0,0c0.1-0.1,0.2,0,0.3,0c0.1,0.1,0,0.2,0,0.3l0,0l0,0l-0.1,0L66.3,38.3L66.3,38.3
		L66.3,38.3z M67.5,37.3c-0.1,0.1-0.2,0.1-0.3,0c-0.1-0.1-0.1-0.2,0-0.3l0,0l0,0l0.1,0l0,0l0,0l0,0c0.1-0.1,0.2-0.1,0.3,0
		c0.1,0.1,0.1,0.2,0,0.3l0,0l0,0l-0.1,0L67.5,37.3L67.5,37.3L67.5,37.3z M68.6,36.2c-0.1,0.1-0.2,0.1-0.3,0c-0.1-0.1-0.1-0.2,0-0.3
		l0,0l0,0l0-0.1l0,0l0,0l0,0c0.1-0.1,0.2-0.1,0.3,0c0.1,0.1,0.1,0.2,0,0.3l0,0l0,0l0,0.1L68.6,36.2L68.6,36.2L68.6,36.2z M69.5,34.9
		c0,0.1-0.2,0.1-0.3,0.1c-0.1-0.1-0.1-0.2-0.1-0.3l0,0l0-0.1l0,0l0-0.1l0-0.1l0,0l0,0c0-0.1,0.2-0.1,0.3-0.1
		c0.1,0.1,0.1,0.2,0.1,0.3l0,0l0,0l0,0.1l0,0.1L69.5,34.9L69.5,34.9L69.5,34.9z M70.3,33.5c0,0.1-0.2,0.1-0.3,0.1
		c-0.1,0-0.1-0.2-0.1-0.3l0,0l0-0.1l0-0.1l0-0.1l0-0.1l0,0l0,0c0-0.1,0.1-0.1,0.2-0.1c0.1,0,0.1,0.2,0.1,0.3l0,0l0,0.1l0,0.1l0,0.1
		L70.3,33.5L70.3,33.5L70.3,33.5z M70.8,32c0,0.1-0.1,0.2-0.2,0.1c-0.1,0-0.1-0.1-0.1-0.3l0-0.1l0-0.1l0-0.1l0-0.1l0-0.1l0,0
		c0-0.1,0.1-0.2,0.2-0.1c0.1,0,0.2,0.1,0.1,0.2l0,0l0,0.1l0,0.1l0,0.1L70.8,32L70.8,32z M71.1,30.4c0,0.1-0.1,0.2-0.2,0.2
		c-0.1,0-0.2-0.1-0.2-0.2v0l0-0.1l0-0.1v-0.1l0-0.1V30v0c0-0.1,0.1-0.2,0.2-0.2c0.1,0,0.2,0.1,0.2,0.2v0l0,0.1v0.1l0,0.1l0,0.1
		L71.1,30.4L71.1,30.4z M71.3,28.9c0,0.1-0.1,0.2-0.2,0.2c-0.1,0-0.2-0.1-0.2-0.2v0v-0.1v-0.1v-0.1v-0.1v-0.1v0
		c0-0.1,0.1-0.2,0.2-0.2c0.1,0,0.2,0.1,0.2,0.2v0v0.1v0.1v0.1V28.9L71.3,28.9L71.3,28.9z M71.2,27.3c0,0.1,0,0.2-0.2,0.2
		c-0.1,0-0.2-0.1-0.2-0.2l0-0.1v-0.1l0-0.1v-0.1l0-0.1v0c0-0.1,0-0.2,0.1-0.2c0.1,0,0.2,0.1,0.2,0.2v0.1l0,0.1l0,0.1v0.1L71.2,27.3
		L71.2,27.3z M70.9,25.7c0,0.1,0,0.2-0.1,0.3c-0.1,0-0.2,0-0.2-0.1l0,0l0-0.1l0-0.1l0-0.1l0-0.1l0-0.1l0,0c0-0.1,0-0.2,0.1-0.2
		c0.1,0,0.2,0,0.2,0.1l0,0l0,0.1l0,0.1l0,0.1l0,0.1L70.9,25.7L70.9,25.7z M70.4,24.2c0,0.1,0,0.2-0.1,0.3c-0.1,0-0.2,0-0.3-0.1l0,0
		l0-0.1l0-0.1l0-0.1l0,0l0-0.1c0-0.1,0-0.2,0.1-0.3c0.1,0,0.2,0,0.3,0.1l0,0.1l0,0.1l0,0.1l0,0.1L70.4,24.2L70.4,24.2z M69.7,22.8
		c0,0.1,0,0.2-0.1,0.3c-0.1,0.1-0.2,0-0.3-0.1v0l0,0l0-0.1l0-0.1l0,0l0-0.1l0,0c-0.1-0.1,0-0.2,0-0.3c0.1-0.1,0.2,0,0.3,0.1l0,0
		l0,0.1l0,0.1l0,0.1L69.7,22.8L69.7,22.8L69.7,22.8z M68.8,21.4c0.1,0.1,0,0.2,0,0.3c-0.1,0.1-0.2,0.1-0.3,0l0,0l0-0.1l0,0l0-0.1
		l0,0l0,0l0,0c-0.1-0.1,0-0.2,0-0.3c0.1-0.1,0.2-0.1,0.3,0l0,0l0,0.1l0,0l0,0.1L68.8,21.4L68.8,21.4L68.8,21.4z M67.8,20.3
		c0.1,0.1,0.1,0.2,0,0.3c-0.1,0.1-0.2,0.1-0.3,0l0,0l0,0l0,0l0,0l0,0l-0.1,0l0,0c-0.1-0.1-0.1-0.2,0-0.3c0.1-0.1,0.2-0.1,0.3,0l0,0
		l0,0l0,0l0.1,0L67.8,20.3L67.8,20.3L67.8,20.3z M66.6,19.3c0.1,0.1,0.1,0.2,0,0.3c0,0.1-0.2,0.1-0.3,0l0,0l-0.1,0l0,0l0,0l-0.1,0
		l0,0l0,0c-0.1,0-0.1-0.2-0.1-0.3c0-0.1,0.2-0.1,0.3-0.1l0,0l0.1,0l0.1,0l0,0L66.6,19.3L66.6,19.3L66.6,19.3z M65.3,18.5
		c0.1,0,0.1,0.2,0.1,0.3c0,0.1-0.2,0.1-0.3,0.1l0,0l0,0l-0.1,0l-0.1,0l0,0l-0.1,0l0,0c-0.1,0-0.1-0.2-0.1-0.3c0-0.1,0.2-0.1,0.3-0.1
		l0,0l0.1,0l0,0l0.1,0L65.3,18.5L65.3,18.5L65.3,18.5z M63.9,17.9c0.1,0,0.2,0.1,0.1,0.3c0,0.1-0.1,0.2-0.2,0.1l0,0l-0.1,0l-0.1,0
		l-0.1,0l-0.1,0l0,0h0c-0.1,0-0.2-0.1-0.1-0.2c0-0.1,0.1-0.2,0.2-0.1l0,0l0.1,0l0.1,0l0.1,0L63.9,17.9L63.9,17.9L63.9,17.9z
		 M62.4,17.5c0.1,0,0.2,0.1,0.2,0.2c0,0.1-0.1,0.2-0.2,0.2h0l-0.1,0l-0.1,0h-0.1l-0.1,0l-0.1,0h0c-0.1,0-0.2-0.1-0.2-0.2
		c0-0.1,0.1-0.2,0.2-0.2l0,0h0.1l0.1,0l0.1,0L62.4,17.5L62.4,17.5L62.4,17.5z M60.9,17.3c0.1,0,0.2,0.1,0.2,0.2
		c0,0.1-0.1,0.2-0.2,0.2h0h-0.1h-0.1h-0.1h-0.1h-0.1c-0.1,0-0.2-0.1-0.2-0.2c0-0.1,0.1-0.2,0.2-0.2h0.1h0.1h0.1h0.1H60.9L60.9,17.3z
		 M59.4,17.3c0.1,0,0.2,0.1,0.2,0.2c0,0.1-0.1,0.2-0.2,0.2h0h-0.1l-0.1,0h-0.1l-0.1,0h0l0,0c-0.1,0-0.2-0.1-0.2-0.2
		c0-0.1,0.1-0.2,0.2-0.2h0l0.1,0h0.1l0.1,0L59.4,17.3L59.4,17.3L59.4,17.3z M57.9,17.6c0.1,0,0.2,0,0.2,0.1c0,0.1,0,0.2-0.1,0.2h0
		l-0.1,0l-0.1,0l-0.1,0l-0.1,0l-0.1,0h0c-0.1,0-0.2,0-0.2-0.1c0-0.1,0-0.2,0.1-0.3h0l0.1,0l0.1,0l0.1,0L57.9,17.6L57.9,17.6
		L57.9,17.6z M56.4,18.1c0.1,0,0.2,0,0.3,0.1c0,0.1,0,0.2-0.1,0.3h0l-0.1,0l-0.1,0l0,0l-0.1,0l-0.1,0h0c-0.1,0-0.2,0-0.3-0.1
		c0-0.1,0-0.2,0.1-0.3l0,0l0.1,0l0.1,0l0,0L56.4,18.1L56.4,18.1L56.4,18.1z M55.1,18.8c0.1-0.1,0.2,0,0.3,0.1c0,0.1,0,0.2-0.1,0.3
		l0,0l0,0l-0.1,0l-0.1,0l0,0l-0.1,0c-0.1,0.1-0.2,0-0.3-0.1c-0.1-0.1,0-0.2,0.1-0.3l0,0l0.1,0l0.1,0L55.1,18.8L55.1,18.8L55.1,18.8z
		"/>
	<path class="st1" d="M45.6,95.7L9,68.3c-3.1-2.3-3.8-6.8-1.6-10l37.1,27.7C42.4,89.2,43,93.3,45.6,95.7L45.6,95.7z"/>
</g>
<g>
	<path class="st3" d="M17.5,20.4l1.2-9.7c0.1-1,1-1.7,1.9-1.5l51.9,7.3c0.9,0.1,1.6,1,1.4,2l-1.2,9.7c-0.1,1-1,1.7-1.9,1.5L19,22.3
		C18.1,22.2,17.4,21.3,17.5,20.4L17.5,20.4z M19.7,18.6c0.1-1,1-1.7,1.9-1.6c0.9,0.1,1.6,1,1.4,2c-0.1,1-1,1.7-1.9,1.6
		C20.2,20.5,19.6,19.6,19.7,18.6L19.7,18.6z"/>
	<path class="st4" d="M18.4,13.7l0.4-3c0.1-1,1-1.7,1.9-1.5l51.9,7.3c0.9,0.1,1.6,1,1.4,2l-0.4,3c0.1-1-0.5-1.8-1.4-2l-51.9-7.3
		C19.3,12,18.5,12.7,18.4,13.7L18.4,13.7z"/>
	<path class="st5" d="M25.1,16.3l0.8-6.4l0.4,0l-0.8,6.4L25.1,16.3z M70.5,22.6l0.8-6.4l0.4,0.1l-0.8,6.4L70.5,22.6z M68.9,22.4
		l0.8-6.4l0.4,0.1l-0.8,6.4L68.9,22.4z M67.2,22.2l0.8-6.4l0.4,0.1l-0.8,6.4L67.2,22.2z M65.6,22l0.8-6.4l0.4,0.1L66,22L65.6,22z
		 M64,21.7l0.8-6.4l0.4,0l-0.8,6.4L64,21.7z M61.9,25.6l1.3-10.5l0.4,0.1l-1.3,10.5L61.9,25.6z M60.8,21.3l0.8-6.4l0.4,0l-0.8,6.4
		L60.8,21.3z M59.1,21.1l0.8-6.4l0.4,0.1l-0.8,6.4L59.1,21.1z M57.5,20.8l0.8-6.4l0.4,0.1l-0.8,6.4L57.5,20.8z M55.9,20.6l0.8-6.4
		l0.4,0.1l-0.8,6.4L55.9,20.6z M54.3,20.4l0.8-6.4l0.4,0.1l-0.8,6.4L54.3,20.4z M52.2,24.3l1.3-10.5l0.4,0l-1.3,10.5L52.2,24.3z
		 M51,19.9l0.8-6.4l0.4,0.1L51.5,20L51,19.9z M49.4,19.7l0.8-6.4l0.4,0.1l-0.8,6.4L49.4,19.7z M47.8,19.5l0.8-6.4l0.4,0.1l-0.8,6.4
		L47.8,19.5z M46.2,19.2l0.8-6.4l0.4,0.1l-0.8,6.4L46.2,19.2z M44.6,19l0.8-6.4l0.4,0L45,19.1L44.6,19z M42.4,22.9l1.3-10.5l0.4,0.1
		L42.9,23L42.4,22.9z M41.3,18.6l0.8-6.4l0.4,0l-0.8,6.4L41.3,18.6z M39.7,18.3l0.8-6.4l0.4,0.1l-0.8,6.4L39.7,18.3z M38.1,18.1
		l0.8-6.4l0.4,0.1l-0.8,6.4L38.1,18.1z M36.5,17.9l0.8-6.4l0.4,0.1l-0.8,6.4L36.5,17.9z M34.9,17.6l0.8-6.4l0.4,0.1l-0.8,6.4
		L34.9,17.6z M32.7,21.5L34,11l0.4,0l-1.3,10.5L32.7,21.5z M31.6,17.2l0.8-6.4l0.4,0.1L32,17.3L31.6,17.2z M30,17l0.8-6.4l0.4,0.1
		L30.4,17L30,17z M28.4,16.7l0.8-6.4l0.4,0.1l-0.8,6.4L28.4,16.7z M26.8,16.5l0.8-6.4l0.4,0.1l-0.8,6.4L26.8,16.5z"/>
</g>
<g>
	<path class="st1" d="M12.8,45.5l33.6-8.8c0.3-0.1,0.5-0.4,0.5-0.7L46,32.3c-0.1-0.3-0.4-0.5-0.7-0.4l-33.6,8.8
		c-0.3,0.1-0.5,0.4-0.4,0.7l0.9,3.6C12.1,45.3,12.4,45.5,12.8,45.5L12.8,45.5z"/>
	<polygon class="st3" points="11.2,41.6 5,42.7 2.9,45.5 11.6,43.2 	"/>
	<polygon class="st3" points="12,44.9 6,46.9 2.9,45.5 11.6,43.2 	"/>
	<path class="st3" d="M46.7,32.1L46.7,32.1c0.4-0.1,0.9,0.2,1,0.6l0.5,1.9c0.1,0.4-0.2,0.9-0.6,1l0,0c-0.4,0.1-0.9-0.1-1-0.6
		l-0.5-1.9C46,32.7,46.3,32.2,46.7,32.1L46.7,32.1z"/>
	<polygon class="st3" points="47.2,34.5 38.3,36.8 38.4,37.4 47.3,35.1 	"/>
	<polygon class="st3" points="32.9,35.1 33.5,34.9 34.4,38.8 33.8,39 	"/>
	<polygon class="st3" points="16.3,39.5 16.9,39.3 17.9,43.4 17.3,43.5 	"/>
</g>
</svg>
