<svg xmlns="http://www.w3.org/2000/svg" viewBox="0 0 94.59 55.27"><defs><style>.cls-1{fill:#ffb345;}.cls-2{fill:#f4f4f4;}.cls-3{fill:#727272;}.cls-4{fill:#ffe3b8;}.cls-5,.cls-7{fill:none;}.cls-6{fill:#6b6c70;}.cls-7{stroke:#ffb345;stroke-miterlimit:10;stroke-width:0.4px;opacity:0.51;}</style></defs><title>step6</title><g id="Layer_2" data-name="Layer 2"><g id="Слой_1_копия_" data-name="Слой 1 (копия)"><polygon class="cls-1" points="87.59 4.73 88.48 5.34 88.11 3.72 87.59 4.73"/><polygon class="cls-2" points="90.33 1.99 90.41 18.43 94.56 39.78 94.56 2.05 90.33 1.99"/><polygon class="cls-1" points="94.59 1.92 90.35 1.87 90.35 0.01 94.59 0 94.59 1.92"/><polygon class="cls-1" points="90.35 0.01 87.55 3.44 87.59 4.73 90.35 1.87 90.35 0.01"/><polygon class="cls-3" points="88.11 4.05 88.25 11.61 90.44 18.33 90.35 1.87 88.11 4.05"/><polygon class="cls-4" points="38.96 10.64 88.26 10.97 94.48 29.97 52.55 29.97 38.96 10.64"/><polygon class="cls-2" points="51.98 55.15 5.91 54.9 6.53 24.48 29.21 6.95 52.55 23.91 51.98 55.15"/><path class="cls-3" d="M35.15,54c.12-.36-.37-30.18-.37-30.18l8.65-6.61,9.26,6.58.24,31.12L35,54.65Z"/><rect class="cls-2" x="52.83" y="29.3" width="41.73" height="25.68"/><rect class="cls-3" x="6.04" y="47.62" width="29.15" height="7.48"/><path class="cls-2" d="M49.69,29c0-2-2.79-3.53-6.22-3.53S37.24,27,37.24,29c0,.11,0,17.07,0,19h12.4C49.68,44.68,49.69,29.09,49.69,29Z"/><rect class="cls-4" x="14.31" y="48.64" width="9.25" height="4.42"/><polygon class="cls-5" points="20.44 48.64 17.32 53.06 17.92 53.06 21.07 48.64 20.44 48.64"/><polygon class="cls-2" points="20.44 48.64 19.42 48.64 16.27 53.06 17.32 53.06 20.44 48.64"/><polygon class="cls-2" points="17.92 53.06 19.85 53.06 23.28 48.64 21.07 48.64 17.92 53.06"/><rect class="cls-3" x="79.43" y="47.82" width="15.1" height="7.45"/><polygon class="cls-4" points="16.66 44.59 11.09 44.63 11.09 28.92 16.59 28.92 16.66 44.59"/><polygon class="cls-3" points="12.25 44.64 11.01 44.64 11.02 28.7 12.25 28.7 12.25 44.64"/><rect class="cls-3" x="11.02" y="28.7" width="5.57" height="1.19"/><rect class="cls-3" x="10.98" y="32.48" width="5.93" height="0.52" transform="translate(-0.06 0.02) rotate(-0.1)"/><polygon class="cls-2" points="12.22 39.18 16.61 33 16.61 34.16 12.25 40.36 12.22 39.18"/><polygon class="cls-2" points="12.24 41.25 16.61 35.12 16.67 37.71 12.23 43.44 12.24 41.25"/><polygon class="cls-4" points="23.25 44.55 17.68 44.59 17.68 28.88 23.18 28.88 23.25 44.55"/><polygon class="cls-3" points="18.84 44.6 17.6 44.6 17.61 28.66 18.84 28.66 18.84 44.6"/><rect class="cls-3" x="17.61" y="28.66" width="5.57" height="1.19"/><rect class="cls-3" x="17.57" y="32.44" width="5.93" height="0.52" transform="translate(-0.06 0.04) rotate(-0.1)"/><polygon class="cls-2" points="18.81 39.13 23.2 32.95 23.2 34.11 18.85 40.31 18.81 39.13"/><polygon class="cls-2" points="18.83 41.21 23.21 35.07 23.26 37.66 18.82 43.39 18.83 41.21"/><polygon class="cls-4" points="29.71 44.55 24.14 44.59 24.14 28.88 29.63 28.88 29.71 44.55"/><polygon class="cls-3" points="25.29 44.6 24.06 44.6 24.07 28.66 25.29 28.66 25.29 44.6"/><rect class="cls-3" x="24.07" y="28.66" width="5.57" height="1.19"/><rect class="cls-3" x="24.03" y="32.44" width="5.93" height="0.52" transform="translate(-0.06 0.05) rotate(-0.1)"/><polygon class="cls-2" points="25.27 39.13 29.66 32.95 29.66 34.11 25.3 40.31 25.27 39.13"/><polygon class="cls-2" points="25.29 41.21 29.66 35.07 29.71 37.66 25.28 43.39 25.29 41.21"/><rect class="cls-6" x="14.31" y="48.64" width="0.79" height="4.44"/><rect class="cls-6" x="36.27" y="49.66" width="13.4" height="2.08"/><rect class="cls-3" x="37.68" y="47.62" width="11.98" height="2.08"/><rect class="cls-3" x="37.61" y="51.66" width="12.08" height="2.08"/><rect class="cls-6" x="37.61" y="53.02" width="12.15" height="2.08"/><rect class="cls-3" x="51.41" y="47.28" width="8.48" height="7.87"/><rect class="cls-3" x="49.66" y="47.27" width="2.89" height="7.88"/><rect class="cls-3" x="35.19" y="47.62" width="2.49" height="7.48"/><rect class="cls-1" x="39.65" y="29.88" width="7.62" height="17.44"/><rect class="cls-4" x="41.21" y="31.85" width="4.14" height="11.79"/><circle class="cls-6" cx="46.31" cy="40.21" r="0.61"/><rect class="cls-3" x="41.21" y="31.85" width="0.96" height="11.79"/><rect class="cls-3" x="42.88" y="30.23" width="0.96" height="4.18" transform="translate(75.68 -11.05) rotate(90)"/><rect class="cls-1" x="57.88" y="36.64" width="21.62" height="18.55"/><rect class="cls-3" x="57.88" y="36.57" width="21.64" height="1.41"/><rect class="cls-4" x="57.88" y="37.98" width="21.63" height="3.39"/><rect class="cls-4" x="57.88" y="43.38" width="21.6" height="1.17"/><line class="cls-7" x1="40.87" y1="12.32" x2="88.75" y2="12.29"/><line class="cls-7" x1="44.45" y1="14.69" x2="89.43" y2="14.51"/><line class="cls-7" x1="46.12" y1="16.46" x2="90.17" y2="16.53"/><line class="cls-7" x1="49.25" y1="19.24" x2="91.07" y2="19.41"/><line class="cls-7" x1="53.44" y1="22.67" x2="92.13" y2="22.65"/><line class="cls-7" x1="57.12" y1="26.35" x2="93.47" y2="26.29"/><polygon class="cls-1" points="59.14 25.46 29.66 3.51 0 26.22 1.53 28.24 29.41 7.09 57.5 27.59 59.14 25.46"/><polygon class="cls-1" points="27.57 25.46 29.54 27.92 44.45 16.45 41.83 14.73 27.57 25.46"/></g></g></svg>