<?xml version="1.0" encoding="utf-8"?>
<!-- Generator: Adobe Illustrator 21.0.0, SVG Export Plug-In . SVG Version: 6.00 Build 0)  -->
<svg version="1.1" id="object" xmlns="http://www.w3.org/2000/svg" xmlns:xlink="http://www.w3.org/1999/xlink" x="0px" y="0px"
	 viewBox="0 0 100 100" style="enable-background:new 0 0 100 100;" xml:space="preserve">
<style type="text/css">
	.st0{fill-rule:evenodd;clip-rule:evenodd;fill:#FFE3B8;}
	.st1{fill-rule:evenodd;clip-rule:evenodd;fill:#6B6C70;}
	.st2{fill-rule:evenodd;clip-rule:evenodd;fill:#FFB345;}
	.st3{fill-rule:evenodd;clip-rule:evenodd;fill:#F7F3EE;}
	.st4{fill:#E7D5B6;}
	.st5{fill-rule:evenodd;clip-rule:evenodd;fill:#878A8C;}
</style>
<rect x="45.3" y="41.6" class="st0" width="11.4" height="11.6"/>
<path class="st0" d="M67.8,27.5c-0.2,0-0.4,0.1-0.6,0.3c0-0.1,0-0.1,0-0.2c0-0.1-0.1-0.3-0.1-0.4c0-0.1-0.1-0.3-0.1-0.4
	c0-0.1-0.1-0.2-0.1-0.4c0-0.1-0.1-0.3-0.1-0.4c0-0.1-0.1-0.2-0.1-0.3c-0.1-0.1-0.1-0.3-0.2-0.4c0-0.1-0.1-0.2-0.1-0.3
	c-0.1-0.1-0.1-0.3-0.2-0.4c0-0.1-0.1-0.2-0.1-0.3c-0.1-0.1-0.1-0.3-0.2-0.4c0-0.1-0.1-0.2-0.1-0.3c-0.1-0.2-0.2-0.3-0.2-0.4
	c0-0.1-0.1-0.2-0.1-0.2c-0.1-0.2-0.2-0.3-0.3-0.5c0-0.1-0.1-0.1-0.1-0.2c-0.1-0.2-0.2-0.3-0.3-0.5c0-0.1-0.1-0.1-0.1-0.2
	c-0.1-0.2-0.2-0.3-0.3-0.5C64,21,64,21,64,20.9c-0.1-0.2-0.3-0.3-0.4-0.5c0,0-0.1-0.1-0.1-0.1c-0.1-0.2-0.3-0.3-0.4-0.5
	c0,0-0.1-0.1-0.1-0.1c-0.1-0.2-0.3-0.3-0.4-0.4c0,0-0.1-0.1-0.1-0.1c-0.2-0.1-0.3-0.3-0.5-0.4c0,0-0.1,0-0.1-0.1
	c-0.2-0.1-0.3-0.3-0.5-0.4c0,0,0,0-0.1-0.1c-0.2-0.1-0.4-0.3-0.6-0.4c0,0,0,0-0.1,0c-0.2-0.1-0.4-0.3-0.6-0.4c0,0,0,0,0,0
	c-0.2-0.1-0.4-0.3-0.6-0.4c0,0,0,0,0,0c-0.2-0.1-0.4-0.2-0.6-0.4c0,0,0,0,0,0c-0.2-0.1-0.4-0.2-0.7-0.3c0,0,0,0,0,0
	c-0.2-0.1-0.5-0.2-0.7-0.3c0,0,0,0,0,0c-1.4-0.6-3-0.9-4.6-1.1c0,0,0,0,0,0c-0.3,0-0.5,0-0.8,0c0,0,0,0,0,0c-0.1,0-0.3,0-0.4,0
	c-7.6,0-14,5.5-15.6,12.8c-0.1-0.1-0.2-0.1-0.3-0.1c-0.9,0-1.7,1.9-1.7,4.3c0,2.4,0.8,4.3,1.7,4.3c0.2,0,0.4-0.1,0.6-0.2
	c1.9,6.9,8.1,11.9,15.4,11.9c0.1,0,0.3,0,0.4,0c0,0,0,0,0,0c0.3,0,0.5,0,0.8,0c0,0,0,0,0,0c1.6-0.1,3.1-0.5,4.6-1.1c0,0,0,0,0,0
	c0.2-0.1,0.5-0.2,0.7-0.3c0,0,0,0,0,0c0.2-0.1,0.5-0.2,0.7-0.3c0,0,0,0,0,0c0.2-0.1,0.4-0.2,0.6-0.4c0,0,0,0,0,0
	c0.2-0.1,0.4-0.2,0.6-0.4c0,0,0,0,0,0c0.2-0.1,0.4-0.3,0.6-0.4c0,0,0,0,0.1,0c0.2-0.1,0.4-0.3,0.6-0.4c0,0,0,0,0.1-0.1
	c0.2-0.1,0.3-0.3,0.5-0.4c0,0,0.1-0.1,0.1-0.1c0.2-0.1,0.3-0.3,0.5-0.4c0,0,0.1-0.1,0.1-0.1c0.2-0.1,0.3-0.3,0.4-0.4
	c0,0,0.1-0.1,0.1-0.1c0.1-0.1,0.3-0.3,0.4-0.5c0,0,0.1-0.1,0.1-0.1c0.1-0.2,0.3-0.3,0.4-0.5c0-0.1,0.1-0.1,0.1-0.2
	c0.1-0.2,0.2-0.3,0.3-0.5c0-0.1,0.1-0.1,0.1-0.2c0.1-0.2,0.2-0.3,0.3-0.5c0-0.1,0.1-0.1,0.1-0.2c0.1-0.2,0.2-0.3,0.3-0.5
	c0-0.1,0.1-0.2,0.1-0.2c0.1-0.1,0.2-0.3,0.2-0.4c0-0.1,0.1-0.2,0.1-0.3c0.1-0.1,0.1-0.3,0.2-0.4c0-0.1,0.1-0.2,0.1-0.3
	c0.1-0.1,0.1-0.3,0.2-0.4c0-0.1,0.1-0.2,0.1-0.3c0.1-0.1,0.1-0.3,0.2-0.4c0-0.1,0.1-0.2,0.1-0.3c0-0.1,0.1-0.3,0.1-0.4
	c0-0.1,0.1-0.2,0.1-0.4c0-0.1,0-0.1,0.1-0.2c0.2,0.4,0.5,0.6,0.8,0.6c0.9,0,1.7-1.9,1.7-4.3C69.5,29.5,68.8,27.5,67.8,27.5z"/>
<path class="st1" d="M88.5,89.7c0-14.1-5.5-28.4-13.1-32.8c-4.5-3-12.5-5-24.3-5c-11.7,0-20.3,2-24.9,5
	c-7.6,4.4-12.5,18.7-12.5,32.9v3.9h13.6v-3.9c0-9.3,3-15.1,4.9-18.1v22h37.6V72.4C72,75.5,75,81.1,75,89.7v3.9h13.6V89.7z"/>
<path class="st1" d="M66.9,26.8c-0.1-0.2-0.1-0.4-0.2-0.5c-0.1-0.3-0.2-0.5-0.3-0.8c-0.1-0.2-0.2-0.5-0.3-0.7
	c-0.1-0.2-0.2-0.4-0.3-0.6c-0.1-0.3-0.3-0.5-0.4-0.8c-0.1-0.2-0.2-0.3-0.2-0.5c-0.2-0.3-0.3-0.5-0.5-0.8c-0.1-0.1-0.1-0.2-0.2-0.3
	c-0.2-0.3-0.4-0.6-0.6-0.8c-0.1-0.1-0.1-0.2-0.2-0.2c-0.2-0.3-0.5-0.6-0.8-0.9c0,0-0.1-0.1-0.1-0.1c-0.3-0.3-0.6-0.6-0.9-0.9
	c0,0-0.1-0.1-0.1-0.1c-0.3-0.3-0.7-0.6-1-0.8c0,0,0,0,0,0c-2.6-2-5.9-3.1-9.4-3.1c-8.6,0-15.7,7-16,15.8c1-1.2,1.6-2.8,2.6-3.9
	c1.6-1.9,3.7-3.2,5.6-4.9c1.3-1.2,3.4-1.4,4.6,0c1,1.1,2.2,2.1,3.6,2.9l0,0c0,0,0,0,0,0c0.5,0.3,0.9,0.5,1.4,0.7
	c0.1,0,0.1,0,0.2,0.1c0.1,0.1,0.3,0.1,0.4,0.2c0,0,0.1,0,0.1,0c0.3,0.1,0.5,0.2,0.8,0.2c0.1,0,0.2,0.1,0.3,0.1c0.1,0,0.2,0,0.3,0.1
	c0.2,0,0.4,0.1,0.6,0.1c0.1,0,0.2,0,0.3,0c0.2,0,0.3,0,0.5,0c0.1,0,0.1,0,0.2,0c0.2,0,0.4,0,0.7-0.1c0.1,0,0.1,0,0.2,0
	c0.2,0,0.4-0.1,0.6-0.1c0,0,0.1,0,0.1,0c0.2-0.1,0.5-0.1,0.7-0.2c0.1,0,0.1,0,0.2-0.1c0.2-0.1,0.5-0.2,0.7-0.3
	c1.6-0.9,3.6-0.3,4.5,1.2c0.4,0.7,1.5,1.3,2.6,1.8C67.2,27.7,67.1,27.3,66.9,26.8z"/>
<g>
	<g>
		<path class="st2" d="M69,22.4c0-0.1,0-0.3-0.1-0.4c-0.3-0.9-1.1-3.7-1.1-4.7c0-7.8-7.3-14.1-16.3-14.1c-9,0-16.3,6.3-16.3,14.1
			c0,0.9-0.8,3.6-1.3,5.1H69z"/>
		<circle class="st2" cx="51.3" cy="4.2" r="4.2"/>
		<g>
			<path class="st3" d="M42,6c1.5-0.9,3.1-1.7,4.9-2.1c0.1,0.3,0.2,0.6,0.2,0.9v11.3c0,1.4-1.1,2.5-2.5,2.5l0,0
				c-1.4,0-2.5-1.1-2.5-2.5V6z"/>
			<path class="st3" d="M55.8,3.8c1.7,0.4,3.4,1.1,4.8,1.9v10.4c0,1.4-1.1,2.5-2.5,2.5l0,0c-1.4,0-2.5-1.1-2.5-2.5V4.8
				C55.6,4.5,55.7,4.1,55.8,3.8z"/>
		</g>
	</g>
	<path class="st2" d="M70,22.7c0,0.7-0.6,1.4-1.3,1.4H34.3c-0.7,0-1.3-0.6-1.3-1.4l0,0c0-0.7,0.6-1.4,1.3-1.4h34.4
		C69.4,21.3,70,21.9,70,22.7L70,22.7z"/>
</g>
<path class="st4" d="M51.8,51.7"/>
<path class="st3" d="M43.8,52.1l7.3,23.3L58,52c0,0-1.1-0.2-6.4-0.2S43.8,52.1,43.8,52.1z"/>
<ellipse class="st2" cx="51.3" cy="51.7" rx="3.6" ry="2.2"/>
<polygon class="st2" points="50.4,52.8 48.8,67.7 51.2,75.3 53.5,67.7 52.7,52.9 "/>
<rect x="56.9" y="75.1" class="st3" width="9.7" height="5.2"/>
<polygon class="st5" points="58,52 63.8,57.9 51.2,75.3 "/>
<polygon class="st5" points="43.9,52.1 38.8,58 51.2,75.4 "/>
<rect x="50.6" y="75.2" class="st5" width="1.1" height="18.4"/>
<path class="st1" d="M91,93.6H11.5c-0.5,0-1,0.4-1,1l0,0c0,0.5,0.4,1,1,1H91c0.5,0,1-0.4,1-1l0,0C92,94,91.5,93.6,91,93.6z"/>
</svg>
