<?xml version="1.0" encoding="utf-8"?>
<!-- Generator: Adobe Illustrator 21.0.0, SVG Export Plug-In . SVG Version: 6.00 Build 0)  -->
<svg version="1.1" id="Layer_1" xmlns="http://www.w3.org/2000/svg" xmlns:xlink="http://www.w3.org/1999/xlink" x="0px" y="0px"
	 viewBox="0 0 100 100" style="enable-background:new 0 0 100 100;" xml:space="preserve">
<style type="text/css">
	.st0{fill:#FFB345;}
	.st1{fill:#FFFFFF;}
	.st2{fill:#F4F4F4;}
	.st3{fill:#BCBEC0;}
	.st4{fill:#878A8C;}
	.st5{fill:#6B6C70;}
	.st6{fill:#FFE3B8;}
</style>
<g>
	<path class="st0" d="M83,29.7c0.4-1.8,0.5-3.7-0.1-5.4c-0.7-2-2.9-2.1-2.9-2.1H49.4v7.5H83z"/>
	<path class="st1" d="M83.2,30.1H49.1v-8.2H80c0,0,2.4,0.1,3.2,2.3c0.6,1.6,0.6,3.5,0.1,5.6L83.2,30.1z M49.7,29.4h33
		c0.4-1.9,0.3-3.6-0.2-5c-0.6-1.8-2.5-1.9-2.6-1.9H49.7V29.4z"/>
</g>
<g>
	<path class="st2" d="M80.1,22.2h-33c-2.9,0-3.9,1.7-3.9,4.4V69h0.6v4.4h30.6c0,0,2.2,0,2.9-2.1c0.3-0.8,0.4-1.6,0.4-2.4h0
		c0-0.1,0-0.2,0-0.3c0,0,0,0,0-0.1c0-14.7,0-41.5,0-41.5S77.4,22.7,80.1,22.2z"/>
	<path class="st1" d="M74.3,73.8H43.5v-4.4h-0.6V26.6c0-3.2,1.3-4.7,4.2-4.7h33l0.1,0.6C77.7,22.9,78,27,78,27.1l0,42.3h0
		c-0.1,0.8-0.2,1.5-0.4,2.1C76.8,73.7,74.4,73.8,74.3,73.8L74.3,73.8z M44.1,73.1h30.2c0.1,0,2-0.1,2.6-1.9c0.2-0.7,0.4-1.4,0.4-2.3
		l0-0.4V27.1c0-0.1-0.2-3.2,1.4-4.5H47.1c-2.5,0-3.6,1.2-3.6,4.1v42h0.6V73.1z"/>
</g>
<g>
	<g>
		<g>
			<g>
				<g>
					<rect x="47.2" y="31.6" class="st3" width="12.3" height="0.9"/>
					<rect x="46.7" y="31.1" class="st3" width="13.3" height="1.9"/>
				</g>
			</g>
			<g>
				<g>
					<rect x="62.4" y="31.6" class="st3" width="12.3" height="0.9"/>
					<rect x="61.9" y="31.1" class="st4" width="13.3" height="1.9"/>
				</g>
			</g>
		</g>
		<g>
			<g>
				<g>
					<rect x="47.2" y="35" class="st3" width="12.3" height="0.9"/>
					<rect x="46.7" y="34.5" class="st3" width="13.3" height="1.9"/>
				</g>
			</g>
			<g>
				<g>
					<rect x="62.4" y="35" class="st3" width="12.3" height="0.9"/>
					<rect x="61.9" y="34.5" class="st4" width="13.3" height="1.9"/>
				</g>
			</g>
		</g>
	</g>
	<g>
		<g>
			<g>
				<g>
					<rect x="47.2" y="39.6" class="st3" width="12.3" height="0.9"/>
					<rect x="46.7" y="39.1" class="st3" width="13.3" height="1.9"/>
				</g>
			</g>
			<g>
				<g>
					<rect x="62.4" y="39.6" class="st3" width="12.3" height="0.9"/>
					<rect x="61.9" y="39.1" class="st4" width="13.3" height="1.9"/>
				</g>
			</g>
		</g>
		<g>
			<g>
				<g>
					<rect x="47.2" y="43" class="st3" width="12.3" height="0.9"/>
					<rect x="46.7" y="42.5" class="st3" width="13.3" height="1.9"/>
				</g>
			</g>
			<g>
				<g>
					<rect x="62.4" y="43" class="st3" width="12.3" height="0.9"/>
					<rect x="61.9" y="42.5" class="st4" width="13.3" height="1.9"/>
				</g>
			</g>
		</g>
	</g>
</g>
<g>
	<g>
		<g>
			<g>
				<g>
					<rect x="47.2" y="48.6" class="st3" width="12.3" height="0.9"/>
					<rect x="46.7" y="48.1" class="st3" width="13.3" height="1.9"/>
				</g>
			</g>
			<g>
				<g>
					<rect x="62.4" y="48.6" class="st3" width="12.3" height="0.9"/>
					<rect x="61.9" y="48.1" class="st4" width="13.3" height="1.9"/>
				</g>
			</g>
		</g>
		<g>
			<g>
				<g>
					<rect x="47.2" y="52.1" class="st3" width="12.3" height="0.9"/>
					<rect x="46.7" y="51.6" class="st3" width="13.3" height="1.9"/>
				</g>
			</g>
			<g>
				<g>
					<rect x="62.4" y="52.1" class="st3" width="12.3" height="0.9"/>
					<rect x="61.9" y="51.6" class="st4" width="13.3" height="1.9"/>
				</g>
			</g>
		</g>
	</g>
	<g>
		<g>
			<g>
				<g>
					<rect x="47.2" y="56.6" class="st3" width="12.3" height="0.9"/>
					<rect x="46.7" y="56.1" class="st3" width="13.3" height="1.9"/>
				</g>
			</g>
			<g>
				<g>
					<rect x="62.4" y="56.6" class="st3" width="12.3" height="0.9"/>
					<rect x="61.9" y="56.1" class="st4" width="13.3" height="1.9"/>
				</g>
			</g>
		</g>
		<g>
			<g>
				<g>
					<rect x="47.2" y="60.1" class="st3" width="12.3" height="0.9"/>
					<rect x="46.7" y="59.6" class="st3" width="13.3" height="1.9"/>
				</g>
			</g>
			<g>
				<g>
					<rect x="62.4" y="60.1" class="st3" width="12.3" height="0.9"/>
					<rect x="61.9" y="59.6" class="st4" width="13.3" height="1.9"/>
				</g>
			</g>
		</g>
	</g>
</g>
<g>
	<path class="st0" d="M72.1,68.6c0,0,0-40.1,0-62.2h0c0-1-0.1-2-0.4-2.9c-0.7-2-2.9-2.1-2.9-2.1H38.2v5h-0.6V69
		c0,2.8,0.9,4.4,3.9,4.4h33C71.8,73,72.1,68.6,72.1,68.6z"/>
	<path class="st1" d="M74.5,73.8h-33c-2.9,0-4.2-1.5-4.2-4.7V6h0.6V1h30.9c0,0,2.4,0.1,3.2,2.3c0.3,0.9,0.4,1.8,0.4,2.8l0,0.2v62.2
		c0,0.1-0.3,4.1,2.2,4.6L74.5,73.8z M37.9,6.7V69c0,2.9,1.1,4.1,3.6,4.1h31.6c-1.6-1.4-1.4-4.4-1.4-4.6l0-61.9h0l0-0.3
		c0-1-0.1-2-0.4-2.8c-0.6-1.8-2.5-1.9-2.6-1.9H38.5v5H37.9z"/>
</g>
<g>
	<path class="st2" d="M66.5,48.1c0-14.6,0-41.9,0-41.9s-0.3-4.4,2.4-4.9h-33C32.9,1.3,32,3,32,5.8v42.4H66.5z"/>
	<path class="st1" d="M66.8,45.1l-35.1,3.3V5.8C31.7,2.5,33,1,35.9,1h33L69,1.6c-2.4,0.4-2.2,4.5-2.2,4.5L66.8,45.1z M32.3,47.8
		h33.8V6.2c0-0.1-0.2-3.2,1.4-4.5H35.9c-2.5,0-3.6,1.2-3.6,4.1V47.8z"/>
</g>
<g>
	<path class="st2" d="M66.2,45.1c0.4,1.8,0.5,3.7-0.1,5.4c-0.7,2-2.9,2.1-2.9,2.1H32.6v-7.5H66.2z"/>
	<path class="st1" d="M66.8,45.1l-0.6-0.4c0.1,2.2,0.1,4.3-0.4,5.8c-0.6,1.8-2.5,1.9-2.6,1.9H32.9v-6.9l-0.8-1l0.2,8.6h30.9
		c0,0,2.4-0.1,3.2-2.3C66.9,49,66.8,47.4,66.8,45.1z"/>
</g>
<g>
	<g>
		<g>
			<g>
				<g>
					<rect x="35.5" y="13.9" class="st3" width="12.3" height="0.9"/>
					<rect x="35" y="13.4" class="st4" width="13.3" height="1.9"/>
				</g>
			</g>
			<g>
				<g>
					<rect x="50.7" y="13.9" class="st3" width="12.3" height="0.9"/>
					<rect x="50.2" y="13.4" class="st4" width="13.3" height="1.9"/>
				</g>
			</g>
		</g>
		<g>
			<g>
				<g>
					<rect x="35.5" y="17.3" class="st3" width="12.3" height="0.9"/>
					<rect x="35" y="16.8" class="st4" width="13.3" height="1.9"/>
				</g>
			</g>
			<g>
				<g>
					<rect x="50.7" y="17.3" class="st3" width="12.3" height="0.9"/>
					<rect x="50.2" y="16.8" class="st4" width="13.3" height="1.9"/>
				</g>
			</g>
		</g>
	</g>
	<g>
		<g>
			<g>
				<g>
					<rect x="35.5" y="21.9" class="st3" width="12.3" height="0.9"/>
					<rect x="35" y="21.4" class="st4" width="13.3" height="1.9"/>
				</g>
			</g>
			<g>
				<g>
					<rect x="50.7" y="21.9" class="st3" width="12.3" height="0.9"/>
					<rect x="50.2" y="21.4" class="st4" width="13.3" height="1.9"/>
				</g>
			</g>
		</g>
		<g>
			<g>
				<g>
					<rect x="35.5" y="25.3" class="st3" width="12.3" height="0.9"/>
					<rect x="35" y="24.8" class="st4" width="13.3" height="1.9"/>
				</g>
			</g>
			<g>
				<g>
					<rect x="50.7" y="25.3" class="st3" width="12.3" height="0.9"/>
					<rect x="50.2" y="24.8" class="st4" width="13.3" height="1.9"/>
				</g>
			</g>
		</g>
	</g>
</g>
<g>
	<g>
		<g>
			<g>
				<g>
					<rect x="35.5" y="31" class="st3" width="12.3" height="0.9"/>
					<rect x="35" y="30.5" class="st3" width="13.3" height="1.9"/>
				</g>
			</g>
			<g>
				<g>
					<rect x="50.7" y="31" class="st3" width="12.3" height="0.9"/>
					<rect x="50.2" y="30.5" class="st4" width="13.3" height="1.9"/>
				</g>
			</g>
		</g>
		<g>
			<g>
				<g>
					<rect x="35.5" y="34.4" class="st3" width="12.3" height="0.9"/>
					<rect x="35" y="33.9" class="st3" width="13.3" height="1.9"/>
				</g>
			</g>
			<g>
				<g>
					<rect x="50.7" y="34.4" class="st3" width="12.3" height="0.9"/>
					<rect x="50.2" y="33.9" class="st4" width="13.3" height="1.9"/>
				</g>
			</g>
		</g>
	</g>
	<g>
		<g>
			<g>
				<g>
					<rect x="35.5" y="38.9" class="st3" width="12.3" height="0.9"/>
					<rect x="35" y="38.5" class="st3" width="13.3" height="1.9"/>
				</g>
			</g>
			<g>
				<g>
					<rect x="50.7" y="38.9" class="st3" width="12.3" height="0.9"/>
					<rect x="50.2" y="38.5" class="st4" width="13.3" height="1.9"/>
				</g>
			</g>
		</g>
		<g>
			<g>
				<g>
					<rect x="35.5" y="42.4" class="st3" width="12.3" height="0.9"/>
					<rect x="35" y="41.9" class="st3" width="13.3" height="1.9"/>
				</g>
			</g>
			<g>
				<g>
					<rect x="50.7" y="42.4" class="st3" width="12.3" height="0.9"/>
					<rect x="50.2" y="41.9" class="st4" width="13.3" height="1.9"/>
				</g>
			</g>
		</g>
	</g>
</g>
<g>
	<path class="st0" d="M60.9,47.7c0,0,0-7.4,0-16.6c0-0.1,0-0.3,0-0.4c0,0,0-0.1,0-0.1h0c0-0.8-0.2-1.7-0.4-2.5
		c-0.7-2-2.9-2.1-2.9-2.1H27v4.5h-0.6v17.5c0,2.8,0.9,4.4,3.9,4.4h33C60.5,52.1,60.9,47.7,60.9,47.7z"/>
	<path class="st1" d="M63.3,52.9h-33c-2.9,0-4.2-1.5-4.2-4.7V30.3h0.6v-4.5h30.9c0,0,2.4,0.1,3.2,2.3c0.2,0.7,0.4,1.4,0.4,2.2h0
		l0,0.4c0,0.1,0,0.3,0,0.4v16.6c0,0.1-0.3,4.1,2.2,4.6L63.3,52.9z M26.7,31v17.2c0,2.9,1.1,4.1,3.6,4.1h31.6
		c-1.6-1.4-1.4-4.4-1.4-4.6l0-16.6c0-0.1,0-0.3,0-0.4l0-0.1c0-0.9-0.2-1.6-0.4-2.4c-0.6-1.8-2.5-1.9-2.6-1.9H27.3V31H26.7z"/>
</g>
<g>
	<path class="st2" d="M55.3,85.5c0-16.5,0-54.5,0-54.5s-0.3-4.4,2.4-4.9h-33c-2.9,0-3.9,1.7-3.9,4.4v55H55.3z"/>
	<path class="st2" d="M55.6,85.8H20.5V30.5c0-3.2,1.3-4.7,4.2-4.7h33l0.1,0.6c-2.4,0.4-2.2,4.5-2.2,4.5L55.6,85.8z M21.1,85.2h33.8
		V31c0-0.1-0.2-3.2,1.4-4.5H24.7c-2.5,0-3.6,1.2-3.6,4.1V85.2z"/>
</g>
<g>
	<g>
		<g>
			<g>
				<g>
					<rect x="24.3" y="33.4" class="st3" width="12.3" height="0.9"/>
					<rect x="23.8" y="32.9" class="st4" width="13.3" height="1.9"/>
				</g>
			</g>
			<g>
				<g>
					<rect x="39.5" y="33.4" class="st3" width="12.3" height="0.9"/>
					<rect x="39.1" y="32.9" class="st4" width="13.3" height="1.9"/>
				</g>
			</g>
		</g>
		<g>
			<g>
				<g>
					<rect x="24.3" y="36.9" class="st3" width="12.3" height="0.9"/>
					<rect x="23.8" y="36.4" class="st4" width="13.3" height="1.9"/>
				</g>
			</g>
			<g>
				<g>
					<rect x="39.5" y="36.9" class="st3" width="12.3" height="0.9"/>
					<rect x="39.1" y="36.4" class="st4" width="13.3" height="1.9"/>
				</g>
			</g>
		</g>
	</g>
	<g>
		<g>
			<g>
				<g>
					<rect x="24.3" y="41.4" class="st3" width="12.3" height="0.9"/>
					<rect x="23.8" y="40.9" class="st3" width="13.3" height="1.9"/>
				</g>
			</g>
			<g>
				<g>
					<rect x="39.5" y="41.4" class="st3" width="12.3" height="0.9"/>
					<rect x="39.1" y="40.9" class="st3" width="13.3" height="1.9"/>
				</g>
			</g>
		</g>
		<g>
			<g>
				<g>
					<rect x="24.3" y="44.9" class="st3" width="12.3" height="0.9"/>
					<rect x="23.8" y="44.4" class="st3" width="13.3" height="1.9"/>
				</g>
			</g>
			<g>
				<g>
					<rect x="39.5" y="44.9" class="st3" width="12.3" height="0.9"/>
					<rect x="39.1" y="44.4" class="st3" width="13.3" height="1.9"/>
				</g>
			</g>
		</g>
	</g>
</g>
<g>
	<rect x="16.5" y="36.9" class="st5" width="42.7" height="62.1"/>
	<g>
		<g>
			<g>
				<rect x="20.2" y="58.2" class="st6" width="5.8" height="5.8"/>
				<rect x="20.2" y="68.5" class="st1" width="5.8" height="5.8"/>
				<rect x="20.2" y="78.8" class="st1" width="5.8" height="5.8"/>
				<rect x="20.2" y="89.1" class="st1" width="5.8" height="5.8"/>
			</g>
			<g>
				<rect x="30.1" y="58.2" class="st6" width="5.8" height="5.8"/>
				<rect x="30.1" y="68.5" class="st1" width="5.8" height="5.8"/>
				<rect x="30.1" y="78.8" class="st1" width="5.8" height="5.8"/>
				<rect x="30.1" y="89.1" class="st1" width="5.8" height="5.8"/>
			</g>
			<g>
				<rect x="40" y="58.2" class="st6" width="5.8" height="5.8"/>
				<rect x="20.2" y="54.3" class="st1" width="5.8" height="0.8"/>
				<rect x="30.1" y="54.3" class="st1" width="5.8" height="0.8"/>
				<rect x="40" y="54.3" class="st1" width="5.8" height="0.8"/>
				<rect x="40" y="68.5" class="st1" width="5.8" height="5.8"/>
				<rect x="40" y="78.8" class="st1" width="5.8" height="5.8"/>
				<rect x="40" y="89.1" class="st1" width="5.8" height="5.8"/>
			</g>
			<g>
				<rect x="49.9" y="58.2" class="st6" width="5.8" height="5.8"/>
				<rect x="49.9" y="68.5" class="st6" width="5.8" height="5.8"/>
				<rect x="49.9" y="78.8" class="st0" width="5.8" height="16.1"/>
			</g>
		</g>
		<rect x="19.6" y="40.4" class="st1" width="36.6" height="10.7"/>
	</g>
	<circle class="st1" cx="52.7" cy="54.7" r="1"/>
</g>
</svg>
