<?xml version="1.0" encoding="utf-8"?>
<!-- Generator: Adobe Illustrator 21.0.0, SVG Export Plug-In . SVG Version: 6.00 Build 0)  -->
<svg version="1.1" id="Слой_2" xmlns="http://www.w3.org/2000/svg" xmlns:xlink="http://www.w3.org/1999/xlink" x="0px" y="0px"
	 viewBox="0 0 157.9 275.5" style="enable-background:new 0 0 157.9 275.5;" xml:space="preserve">
<style type="text/css">
	.st0{fill:none;stroke:#000000;stroke-width:3;stroke-miterlimit:10;}
	.st1{fill:#878A8C;}
	.st2{fill:#727272;}
	.st3{fill:#6B6C70;}
	.st4{fill:#FFB345;}
	.st5{fill:#FFE3B8;}
	.st6{fill:none;stroke:#727272;stroke-width:3;stroke-miterlimit:10;}
	.st7{fill:#F7F3EE;}
</style>
<title>Inzhenerno geodezicheskie</title>
<g>
	<path class="st0" d="M12.5,110.4"/>
</g>
<path class="st1" d="M17.2,244.3v-138l-0.3-3.1l-2.8,1.6l-9.8,4.3c-1.5,0.7-2.5,2.1-2.7,3.9c-0.6,12.9,2.5,22.2,9,26.8
	c0.4,0.2,0.7,0.5,1.1,0.7v3.9l-2.9,2l0.1,96.5c0,2.7,2.1,4.7,4.7,4.7h1.3c0.9,0,1.7,0,2.2-0.7c0.5-0.6,0.4-1.3,0.3-1.7
	C17.3,245,17.2,244.7,17.2,244.3z M14.3,244.3"/>
<g>
	<path class="st0" d="M145.6,233.1"/>
</g>
<g>
	<path class="st2" d="M142.4,262.3l-2.8-0.8l1-3.5h-0.9V127.2c0-0.4-0.3-2,0.2-2.6c0.6-0.7,3.5-0.7,3.5-0.7c1,0,1.7,0.3,2.2,0.8
		c0.8,0.8,0.8,2,0.8,3.1c0,0.2,0,0.4,0,0.6l1.6,103.5c0.1,6.6-0.7,13.1-2.5,19.2L142.4,262.3z M142.5,250.9"/>
</g>
<path class="st3" d="M16.3,78.6c-0.3-2.5-0.4-5.2-0.4-8.3c0-1,0-2.2,0-3.5c0-1.6-0.1-3.3-0.1-5.3c-0.1-6.9-0.3-16.3-1-28l-0.1-1.4
	h-0.7V9.6c0-2-1.6-3.6-3.6-3.6h0c-2,0-3.6,1.6-3.6,3.6V32H6.1L6,33.4c-0.7,11.5-0.9,21-1,27.9C5,69.9,5,74.1,5.1,77.4l0,1.5
	c0.1,3,0.2,6.4,0,11.1c-0.1,2.1-0.2,4-0.3,5.4L4.8,97L5,97.4c0.2,0.4,0.3,0.8,0.1,1.3l-0.3,0.9v3.2c0,1.1,0.3,2.1,0.8,3.1v3.1
	l8.8-1.6L16.3,78.6z"/>
<g>
	<path class="st4" d="M23.3,270.8c-5,0-9-4-9-9V108.7c0-4.2,3.4-7.5,7.5-7.5l28.4,5.8h54.2l30.7-5.8c4,0,7.2,3.2,7.2,7.2V262
		c0,4.8-3.8,8.7-8.8,8.8H23.3z"/>
</g>
<g>
	<path class="st3" d="M141.4,81.6V58.5c-0.1-9.9-7.9-17.7-17.8-17.8H33.4c-9.9,0.1-17.7,7.9-17.8,17.8l0,23l-1.3,25.8l128,0
		L141.4,81.6z M119.3,78.3c0,9.4-17.5,25.1-17.5,25.1l-47.7,0.6c0,0-17.3-17.2-17.3-25.7l-0.3-11.9c0-1.5,1.2-2.7,2.7-2.7l77.7,0.1
		c1.5,0,2.7,1.2,2.7,2.7L119.3,78.3z"/>
</g>
<g>
	<path class="st5" d="M53.9,221.1c-1.2-0.5-2-1.6-2-2.9l-0.1-51.3v-22.1l2.1-46.5l0.7-1.9c0.5-1.3,1.6-2.2,2.9-2.2l3.7-0.8l12.3-1.6
		c0.4-0.3,0.6-0.8,0.6-1.3c0-2,1.6-3.6,3.6-3.6h0.6c2,0,3.6,1.6,3.6,3.6c0,0.5,0.2,1,0.6,1.3l12.4,1.6l3.5,0.7c1.4,0.1,2.6,1,3,2.3
		l0.7,2.2l2,46l0.3,22.2v51.4c0,1.4-0.8,2.6-2.1,3C100.5,221.9,55.6,221.8,53.9,221.1z"/>
</g>
<g>
	<path class="st6" d="M83,151.2"/>
</g>
<g>
	<path class="st6" d="M62.7,139.6"/>
</g>
<path class="st7" d="M91.7,132.2h-27c-1.8,0-3.3,1.5-3.3,3.3v4.1v4.3v23.5c0,1.8,1.5,3.3,3.3,3.3h27c1.8,0,3.3-1.5,3.3-3.3v-4.5
	v-0.9v-26.5C95,133.6,93.5,132.2,91.7,132.2z"/>
<g>
	<path class="st4" d="M93.5,161.6H76.9v-2.9l-0.7-14.9V141h17.3c1.5,0,2.7,1,2.9,2.5l0,0.2v15.3C96.4,160.4,95.1,161.6,93.5,161.6z"
		/>
</g>
<g>
	<path class="st1" d="M70.4,163.4c-6.7,0-12.1-5.4-12.1-12.1s5.4-12.1,12.1-12.1s12.1,5.4,12.1,12.1S77,163.4,70.4,163.4z"/>
</g>
<g>
	<path class="st2" d="M70.4,155.5c-2.4,0-4.3-1.9-4.3-4.3s1.9-4.3,4.3-4.3s4.3,1.9,4.3,4.3S72.8,155.5,70.4,155.5z M70.4,149.7
		c-0.8,0-1.4,0.6-1.4,1.4s0.6,1.4,1.4,1.4s1.4-0.6,1.4-1.4S71.2,149.7,70.4,149.7z"/>
</g>
<g>
	<path class="st2" d="M150.8,206.7c-2.6-0.7-6.1-1.8-6.2-1.8l0.1,28.1l6.7-2.4c1.7-0.6,2.8-2.2,2.8-3.9l0-7.8c0-3.7-0.2-6.6-0.3-8.5
		C153.7,208.7,152.5,207.2,150.8,206.7z"/>
	<path class="st2" d="M146,167l0.2,28.2c0,0,5.9-2.4,7.8-3.4c0.6-0.3,1-1,1-1.7l0-9.6c0-5.2-0.3-8.6-0.5-10.3
		c-0.1-0.8-0.6-1.4-1.4-1.7C151.1,168,146,167,146,167z"/>
	<path class="st2" d="M145.7,156.7l6.6-2.6c0.9-0.4,1.5-1.2,1.5-2.2l0-6.5c0-3.3-0.3-5.7-0.4-7.2c-0.1-1-0.9-1.8-1.9-2l-5.7-1.2
		L145.7,156.7z"/>
</g>
</svg>
